<?xml version="1.0" encoding="UTF-8" standalone="no"?>
<!DOCTYPE svg PUBLIC "-//W3C//DTD SVG 1.1//EN"
 "http://www.w3.org/Graphics/SVG/1.1/DTD/svg11.dtd">
<!-- Generated by graphviz version 12.2.1 (20241206.2353)
 -->
<!-- Title: _ballTriggerCollideCB Pages: 1 -->
<svg width="473pt" height="28pt"
 viewBox="0.00 0.00 473.25 28.00" xmlns="http://www.w3.org/2000/svg" xmlns:xlink="http://www.w3.org/1999/xlink">
<g id="graph0" class="graph" transform="scale(1 1) rotate(0) translate(4 24)">
<title>_ballTriggerCollideCB</title>
<!-- Node1 -->
<g id="Node000001" class="node">
<title>Node1</title>
<g id="a_Node000001"><a xlink:title="Triggers the callback, if one is registered.">
<polygon fill="#999999" stroke="#666666" points="465.25,-20 354.75,-20 354.75,0 465.25,0 465.25,-20"/>
<text text-anchor="middle" x="410" y="-6.5" font-family="Helvetica,sans-Serif" font-size="10.00">_ballTriggerCollideCB</text>
</a>
</g>
</g>
<!-- Node2 -->
<g id="Node000002" class="node">
<title>Node2</title>
<g id="a_Node000002"><a xlink:href="ball_8c.html#adbc02f72caa0f3a8edcc8cb7d3150b59" target="_top" xlink:title=" ">
<polygon fill="white" stroke="#666666" points="318.75,-20 231.5,-20 231.5,0 318.75,0 318.75,-20"/>
<text text-anchor="middle" x="275.12" y="-6.5" font-family="Helvetica,sans-Serif" font-size="10.00">_ballCollideField</text>
</a>
</g>
</g>
<!-- Node1&#45;&gt;Node2 -->
<g id="edge1_Node000001_Node000002" class="edge">
<title>Node1&#45;&gt;Node2</title>
<g id="a_edge1_Node000001_Node000002"><a xlink:title=" ">
<path fill="none" stroke="#63b8ff" d="M343.31,-10C335.01,-10 326.69,-10 318.88,-10"/>
<polygon fill="#63b8ff" stroke="#63b8ff" points="343.06,-13.5 353.06,-10 343.06,-6.5 343.06,-13.5"/>
</a>
</g>
</g>
<!-- Node3 -->
<g id="Node000003" class="node">
<title>Node3</title>
<g id="a_Node000003"><a xlink:href="ball_8c.html#a811f01dadcf181512a317a15eada5ba8" target="_top" xlink:title=" ">
<polygon fill="white" stroke="#666666" points="195.5,-20 103.75,-20 103.75,0 195.5,0 195.5,-20"/>
<text text-anchor="middle" x="149.62" y="-6.5" font-family="Helvetica,sans-Serif" font-size="10.00">_ballDoCollisions</text>
</a>
</g>
</g>
<!-- Node2&#45;&gt;Node3 -->
<g id="edge2_Node000002_Node000003" class="edge">
<title>Node2&#45;&gt;Node3</title>
<g id="a_edge2_Node000002_Node000003"><a xlink:title=" ">
<path fill="none" stroke="#63b8ff" d="M219.78,-10C211.82,-10 203.68,-10 195.92,-10"/>
<polygon fill="#63b8ff" stroke="#63b8ff" points="219.76,-13.5 229.76,-10 219.76,-6.5 219.76,-13.5"/>
</a>
</g>
</g>
<!-- Node4 -->
<g id="Node000004" class="node">
<title>Node4</title>
<g id="a_Node000004"><a xlink:href="ball_8c.html#aebbd0862c45d74863ece4cbf68e102e6" target="_top" xlink:title="Mainly process ball collisions.">
<polygon fill="white" stroke="#666666" points="67.75,-20 0,-20 0,0 67.75,0 67.75,-20"/>
<text text-anchor="middle" x="33.88" y="-6.5" font-family="Helvetica,sans-Serif" font-size="10.00">_ballUpdate</text>
</a>
</g>
</g>
<!-- Node3&#45;&gt;Node4 -->
<g id="edge3_Node000003_Node000004" class="edge">
<title>Node3&#45;&gt;Node4</title>
<g id="a_edge3_Node000003_Node000004"><a xlink:title=" ">
<path fill="none" stroke="#63b8ff" d="M91.89,-10C83.73,-10 75.58,-10 68.09,-10"/>
<polygon fill="#63b8ff" stroke="#63b8ff" points="91.83,-13.5 101.83,-10 91.83,-6.5 91.83,-13.5"/>
</a>
</g>
</g>
</g>
</svg>
