<?xml version="1.0" encoding="UTF-8" standalone="no"?>
<!DOCTYPE svg PUBLIC "-//W3C//DTD SVG 1.1//EN"
 "http://www.w3.org/Graphics/SVG/1.1/DTD/svg11.dtd">
<!-- Generated by graphviz version 12.2.1 (20241206.2353)
 -->
<!-- Title: Hadouken_OnStart Pages: 1 -->
<svg width="639pt" height="256pt"
 viewBox="0.00 0.00 639.00 256.00" xmlns="http://www.w3.org/2000/svg" xmlns:xlink="http://www.w3.org/1999/xlink">
<g id="graph0" class="graph" transform="scale(1 1) rotate(0) translate(4 252)">
<title>Hadouken_OnStart</title>
<!-- Node1 -->
<g id="Node000001" class="node">
<title>Node1</title>
<g id="a_Node000001"><a xlink:title=" ">
<polygon fill="#999999" stroke="#666666" points="99.25,-134 0,-134 0,-114 99.25,-114 99.25,-134"/>
<text text-anchor="middle" x="49.62" y="-120.5" font-family="Helvetica,sans-Serif" font-size="10.00">Hadouken_OnStart</text>
</a>
</g>
</g>
<!-- Node2 -->
<g id="Node000002" class="node">
<title>Node2</title>
<g id="a_Node000002"><a xlink:href="character_8c.html#a200e89c90b4de88de178bb03a13fa94d" target="_top" xlink:title=" ">
<polygon fill="white" stroke="#666666" points="288.5,-248 135.25,-248 135.25,-228 288.5,-228 288.5,-248"/>
<text text-anchor="middle" x="211.88" y="-234.5" font-family="Helvetica,sans-Serif" font-size="10.00">GetCharacterAttackComponent</text>
</a>
</g>
</g>
<!-- Node1&#45;&gt;Node2 -->
<g id="edge1_Node000001_Node000002" class="edge">
<title>Node1&#45;&gt;Node2</title>
<g id="a_edge1_Node000001_Node000002"><a xlink:title=" ">
<path fill="none" stroke="#63b8ff" d="M56.85,-134.42C69.21,-154.13 98.79,-196.91 135.25,-219 137.73,-220.5 140.33,-221.89 143,-223.16"/>
<polygon fill="#63b8ff" stroke="#63b8ff" points="141.65,-226.39 152.23,-226.98 144.33,-219.93 141.65,-226.39"/>
</a>
</g>
</g>
<!-- Node3 -->
<g id="Node000003" class="node">
<title>Node3</title>
<g id="a_Node000003"><a xlink:href="character_8c.html#a756de494fc30153923e1544645d5f2a5" target="_top" xlink:title=" ">
<polygon fill="white" stroke="#666666" points="283.25,-210 140.5,-210 140.5,-190 283.25,-190 283.25,-210"/>
<text text-anchor="middle" x="211.88" y="-196.5" font-family="Helvetica,sans-Serif" font-size="10.00">GetCharacterFacingDirection</text>
</a>
</g>
</g>
<!-- Node1&#45;&gt;Node3 -->
<g id="edge2_Node000001_Node000003" class="edge">
<title>Node1&#45;&gt;Node3</title>
<g id="a_edge2_Node000001_Node000003"><a xlink:title=" ">
<path fill="none" stroke="#63b8ff" d="M65,-134.35C81.37,-145.76 109.22,-164.09 135.25,-176 143.35,-179.71 152.19,-183.07 160.87,-186.03"/>
<polygon fill="#63b8ff" stroke="#63b8ff" points="159.69,-189.33 170.28,-189.09 161.85,-182.67 159.69,-189.33"/>
</a>
</g>
</g>
<!-- Node4 -->
<g id="Node000004" class="node">
<title>Node4</title>
<g id="a_Node000004"><a xlink:href="character_8c.html#a5ebc6906e36acf7e8a3f4d7fc4333e6b" target="_top" xlink:title=" ">
<polygon fill="white" stroke="#666666" points="493.5,-172 324.5,-172 324.5,-152 493.5,-152 493.5,-172"/>
<text text-anchor="middle" x="409" y="-158.5" font-family="Helvetica,sans-Serif" font-size="10.00">GetCharacterGameplayComponent</text>
</a>
</g>
</g>
<!-- Node1&#45;&gt;Node4 -->
<g id="edge3_Node000001_Node000004" class="edge">
<title>Node1&#45;&gt;Node4</title>
<g id="a_edge3_Node000001_Node000004"><a xlink:title=" ">
<path fill="none" stroke="#63b8ff" d="M91.28,-134.44C105.15,-137.65 120.8,-140.89 135.25,-143 193.88,-151.57 260.19,-156.3 312.75,-158.9"/>
<polygon fill="#63b8ff" stroke="#63b8ff" points="312.42,-162.39 322.58,-159.37 312.75,-155.4 312.42,-162.39"/>
</a>
</g>
</g>
<!-- Node5 -->
<g id="Node000005" class="node">
<title>Node5</title>
<g id="a_Node000005"><a xlink:href="character_8c.html#a442b735141d6315291d3e71ac19807ff" target="_top" xlink:title=" ">
<polygon fill="white" stroke="#666666" points="480,-77 338,-77 338,-57 480,-57 480,-77"/>
<text text-anchor="middle" x="409" y="-63.5" font-family="Helvetica,sans-Serif" font-size="10.00">GetCharacterGameplayState</text>
</a>
</g>
</g>
<!-- Node1&#45;&gt;Node5 -->
<g id="edge4_Node000001_Node000005" class="edge">
<title>Node1&#45;&gt;Node5</title>
<g id="a_edge4_Node000001_Node000005"><a xlink:title=" ">
<path fill="none" stroke="#63b8ff" d="M61.01,-113.91C75.96,-100.17 105.09,-76.21 135.25,-67 199.44,-47.4 276.16,-49.5 331.86,-55.28"/>
<polygon fill="#63b8ff" stroke="#63b8ff" points="331.23,-58.74 341.55,-56.36 332,-51.78 331.23,-58.74"/>
</a>
</g>
</g>
<!-- Node6 -->
<g id="Node000006" class="node">
<title>Node6</title>
<g id="a_Node000006"><a xlink:href="gameplaycomponent_8c.html#a001ce01f43531f4f18a055b920370154" target="_top" xlink:title="When attaching a payload to an action this function gets called.">
<polygon fill="white" stroke="#666666" points="258.12,-96 165.62,-96 165.62,-76 258.12,-76 258.12,-96"/>
<text text-anchor="middle" x="211.88" y="-82.5" font-family="Helvetica,sans-Serif" font-size="10.00">InitActionPayload</text>
</a>
</g>
</g>
<!-- Node1&#45;&gt;Node6 -->
<g id="edge5_Node000001_Node000006" class="edge">
<title>Node1&#45;&gt;Node6</title>
<g id="a_edge5_Node000001_Node000006"><a xlink:title=" ">
<path fill="none" stroke="#63b8ff" d="M94.84,-113.52C113.67,-109.05 135.83,-103.79 155.72,-99.08"/>
<polygon fill="#63b8ff" stroke="#63b8ff" points="156.41,-102.51 165.33,-96.8 154.8,-95.7 156.41,-102.51"/>
</a>
</g>
</g>
<!-- Node7 -->
<g id="Node000007" class="node">
<title>Node7</title>
<g id="a_Node000007"><a xlink:href="gameplaystatemanager_8c.html#a59021f98c2d86ab033ca832f6907d264" target="_top" xlink:title="The character can be in various states to make sure there is one centralized point where those states...">
<polygon fill="white" stroke="#666666" points="277.62,-134 146.12,-134 146.12,-114 277.62,-114 277.62,-134"/>
<text text-anchor="middle" x="211.88" y="-120.5" font-family="Helvetica,sans-Serif" font-size="10.00">TryChangeGameplayState</text>
</a>
</g>
</g>
<!-- Node1&#45;&gt;Node7 -->
<g id="edge6_Node000001_Node000007" class="edge">
<title>Node1&#45;&gt;Node7</title>
<g id="a_edge6_Node000001_Node000007"><a xlink:title=" ">
<path fill="none" stroke="#63b8ff" d="M99.58,-124C110.6,-124 122.55,-124 134.4,-124"/>
<polygon fill="#63b8ff" stroke="#63b8ff" points="134.17,-127.5 144.17,-124 134.17,-120.5 134.17,-127.5"/>
</a>
</g>
</g>
<!-- Node10 -->
<g id="Node000010" class="node">
<title>Node10</title>
<g id="a_Node000010"><a xlink:href="gameplaycomponent_8c.html#a02bfeafea4052d3547276a27397b042c" target="_top" xlink:title="Difference from above function is that this tries to deinit if there is none it just gently exits whe...">
<polygon fill="white" stroke="#666666" points="271.62,-20 152.12,-20 152.12,0 271.62,0 271.62,-20"/>
<text text-anchor="middle" x="211.88" y="-6.5" font-family="Helvetica,sans-Serif" font-size="10.00">TryDeInitActionPayload</text>
</a>
</g>
</g>
<!-- Node1&#45;&gt;Node10 -->
<g id="edge11_Node000001_Node000010" class="edge">
<title>Node1&#45;&gt;Node10</title>
<g id="a_edge11_Node000001_Node000010"><a xlink:title=" ">
<path fill="none" stroke="#63b8ff" d="M57.52,-113.76C70.54,-95.18 100.58,-55.82 135.25,-34 141.22,-30.24 147.82,-27.03 154.57,-24.29"/>
<polygon fill="#63b8ff" stroke="#63b8ff" points="155.63,-27.63 163.8,-20.9 153.21,-21.07 155.63,-27.63"/>
</a>
</g>
</g>
<!-- Node7&#45;&gt;Node4 -->
<g id="edge7_Node000007_Node000004" class="edge">
<title>Node7&#45;&gt;Node4</title>
<g id="a_edge7_Node000007_Node000004"><a xlink:title=" ">
<path fill="none" stroke="#63b8ff" d="M266.71,-134.48C290.38,-139.09 318.39,-144.55 343.19,-149.38"/>
<polygon fill="#63b8ff" stroke="#63b8ff" points="342.37,-152.78 352.85,-151.26 343.71,-145.91 342.37,-152.78"/>
</a>
</g>
</g>
<!-- Node7&#45;&gt;Node5 -->
<g id="edge8_Node000007_Node000005" class="edge">
<title>Node7&#45;&gt;Node5</title>
<g id="a_edge8_Node000007_Node000005"><a xlink:title=" ">
<path fill="none" stroke="#63b8ff" d="M256.59,-113.51C267.07,-110.85 278.21,-107.92 288.5,-105 314.59,-97.58 343.6,-88.38 366.5,-80.89"/>
<polygon fill="#63b8ff" stroke="#63b8ff" points="367.37,-84.29 375.77,-77.84 365.18,-77.64 367.37,-84.29"/>
</a>
</g>
</g>
<!-- Node8 -->
<g id="Node000008" class="node">
<title>Node8</title>
<g id="a_Node000008"><a xlink:href="character_8c.html#a63553c66ba3b649f253f738c79d84546" target="_top" xlink:title=" ">
<polygon fill="white" stroke="#666666" points="463.88,-134 354.12,-134 354.12,-114 463.88,-114 463.88,-134"/>
<text text-anchor="middle" x="409" y="-120.5" font-family="Helvetica,sans-Serif" font-size="10.00">UpdateCharacterSize</text>
</a>
</g>
</g>
<!-- Node7&#45;&gt;Node8 -->
<g id="edge9_Node000007_Node000008" class="edge">
<title>Node7&#45;&gt;Node8</title>
<g id="a_edge9_Node000007_Node000008"><a xlink:title=" ">
<path fill="none" stroke="#63b8ff" d="M278.12,-124C298.87,-124 321.82,-124 342.59,-124"/>
<polygon fill="#63b8ff" stroke="#63b8ff" points="342.36,-127.5 352.36,-124 342.36,-120.5 342.36,-127.5"/>
</a>
</g>
</g>
<!-- Node9 -->
<g id="Node000009" class="node">
<title>Node9</title>
<g id="a_Node000009"><a xlink:href="object_8c.html#a78dca0d7c7a63298139246387397c01c" target="_top" xlink:title=" ">
<polygon fill="white" stroke="#666666" points="631,-134 529.5,-134 529.5,-114 631,-114 631,-134"/>
<text text-anchor="middle" x="580.25" y="-120.5" font-family="Helvetica,sans-Serif" font-size="10.00">ObjChangeSizeAbs</text>
</a>
</g>
</g>
<!-- Node8&#45;&gt;Node9 -->
<g id="edge10_Node000008_Node000009" class="edge">
<title>Node8&#45;&gt;Node9</title>
<g id="a_edge10_Node000008_Node000009"><a xlink:title=" ">
<path fill="none" stroke="#63b8ff" d="M464.02,-124C481.16,-124 500.24,-124 517.86,-124"/>
<polygon fill="#63b8ff" stroke="#63b8ff" points="517.68,-127.5 527.68,-124 517.68,-120.5 517.68,-127.5"/>
</a>
</g>
</g>
</g>
</svg>
