<?xml version="1.0" encoding="UTF-8" standalone="no"?>
<!DOCTYPE svg PUBLIC "-//W3C//DTD SVG 1.1//EN"
 "http://www.w3.org/Graphics/SVG/1.1/DTD/svg11.dtd">
<!-- Generated by graphviz version 12.2.1 (20241206.2353)
 -->
<!-- Title: _hadoukenUpdate Pages: 1 -->
<svg width="409pt" height="180pt"
 viewBox="0.00 0.00 408.50 180.00" xmlns="http://www.w3.org/2000/svg" xmlns:xlink="http://www.w3.org/1999/xlink">
<g id="graph0" class="graph" transform="scale(1 1) rotate(0) translate(4 176)">
<title>_hadoukenUpdate</title>
<!-- Node1 -->
<g id="Node000001" class="node">
<title>Node1</title>
<g id="a_Node000001"><a xlink:title="Once spawned the hadouken has a very specific behaviour that needs to run every update frame.">
<polygon fill="#999999" stroke="#666666" points="94.75,-115 0,-115 0,-95 94.75,-95 94.75,-115"/>
<text text-anchor="middle" x="47.38" y="-101.5" font-family="Helvetica,sans-Serif" font-size="10.00">_hadoukenUpdate</text>
</a>
</g>
</g>
<!-- Node2 -->
<g id="Node000002" class="node">
<title>Node2</title>
<g id="a_Node000002"><a xlink:href="hadouken_8c.html#a2dfc6f6dcbf9f9ecb1f83686b2314e22" target="_top" xlink:title="For playing animations on the hadouken itself. At the moment the hadouken transitions during movement...">
<polygon fill="white" stroke="#666666" points="260.75,-172 143.5,-172 143.5,-152 260.75,-152 260.75,-172"/>
<text text-anchor="middle" x="202.12" y="-158.5" font-family="Helvetica,sans-Serif" font-size="10.00">_hadoukenAnimUpdate</text>
</a>
</g>
</g>
<!-- Node1&#45;&gt;Node2 -->
<g id="edge1_Node000001_Node000002" class="edge">
<title>Node1&#45;&gt;Node2</title>
<g id="a_edge1_Node000001_Node000002"><a xlink:title=" ">
<path fill="none" stroke="#63b8ff" d="M68.29,-115.34C84.73,-123.59 108.84,-135.05 130.75,-143 136.04,-144.92 141.62,-146.75 147.22,-148.45"/>
<polygon fill="#63b8ff" stroke="#63b8ff" points="145.93,-151.72 156.51,-151.16 147.89,-145 145.93,-151.72"/>
</a>
</g>
</g>
<!-- Node3 -->
<g id="Node000003" class="node">
<title>Node3</title>
<g id="a_Node000003"><a xlink:href="hadouken_8c.html#a82183ecfa15d25ca5a89d2f4e55a9d89" target="_top" xlink:title=" ">
<polygon fill="white" stroke="#666666" points="273.5,-134 130.75,-134 130.75,-114 273.5,-114 273.5,-134"/>
<text text-anchor="middle" x="202.12" y="-120.5" font-family="Helvetica,sans-Serif" font-size="10.00">_isHadoukenCrossedBounds</text>
</a>
</g>
</g>
<!-- Node1&#45;&gt;Node3 -->
<g id="edge2_Node000001_Node000003" class="edge">
<title>Node1&#45;&gt;Node3</title>
<g id="a_edge2_Node000001_Node000003"><a xlink:title=" ">
<path fill="none" stroke="#63b8ff" d="M95.04,-110.8C102.7,-111.76 110.83,-112.77 119.05,-113.79"/>
<polygon fill="#63b8ff" stroke="#63b8ff" points="118.42,-117.24 128.78,-115 119.29,-110.29 118.42,-117.24"/>
</a>
</g>
</g>
<!-- Node4 -->
<g id="Node000004" class="node">
<title>Node4</title>
<g id="a_Node000004"><a xlink:href="animation_8c.html#af4c0ab2cde063cc90dc0c025325d2e76" target="_top" xlink:title="Plays hadouken animation on the ball which goes through multiple sprites as it is moving itself.">
<polygon fill="white" stroke="#666666" points="266.38,-96 137.88,-96 137.88,-76 266.38,-76 266.38,-96"/>
<text text-anchor="middle" x="202.12" y="-82.5" font-family="Helvetica,sans-Serif" font-size="10.00">Hadouken_PlayAnimation</text>
</a>
</g>
</g>
<!-- Node1&#45;&gt;Node4 -->
<g id="edge3_Node000001_Node000004" class="edge">
<title>Node1&#45;&gt;Node4</title>
<g id="a_edge3_Node000001_Node000004"><a xlink:title=" ">
<path fill="none" stroke="#63b8ff" d="M95.04,-99.2C105,-97.96 115.76,-96.62 126.48,-95.29"/>
<polygon fill="#63b8ff" stroke="#63b8ff" points="126.6,-98.8 136.09,-94.09 125.74,-91.85 126.6,-98.8"/>
</a>
</g>
</g>
<!-- Node5 -->
<g id="Node000005" class="node">
<title>Node5</title>
<g id="a_Node000005"><a xlink:href="hadouken_8c.html#a3e268f9978dc8d7b159bf0ad71dac141" target="_top" xlink:title="Must make sure to delete the animation and frames within that along with the obj.">
<polygon fill="white" stroke="#666666" points="245.38,-58 158.88,-58 158.88,-38 245.38,-38 245.38,-58"/>
<text text-anchor="middle" x="202.12" y="-44.5" font-family="Helvetica,sans-Serif" font-size="10.00">hadoukenDelete</text>
</a>
</g>
</g>
<!-- Node1&#45;&gt;Node5 -->
<g id="edge4_Node000001_Node000005" class="edge">
<title>Node1&#45;&gt;Node5</title>
<g id="a_edge4_Node000001_Node000005"><a xlink:title=" ">
<path fill="none" stroke="#63b8ff" d="M68.29,-94.66C84.73,-86.41 108.84,-74.95 130.75,-67 136.19,-65.03 141.93,-63.15 147.69,-61.41"/>
<polygon fill="#63b8ff" stroke="#63b8ff" points="148.63,-64.78 157.26,-58.63 146.68,-58.05 148.63,-64.78"/>
</a>
</g>
</g>
<!-- Node6 -->
<g id="Node000006" class="node">
<title>Node6</title>
<g id="a_Node000006"><a xlink:href="animation_8c.html#a05c8658b6d137faa1e3fea8afb9d4108" target="_top" xlink:title="Gets called for both character freeing up storage within the animation component by frames data and a...">
<polygon fill="white" stroke="#666666" points="400.5,-96 309.5,-96 309.5,-76 400.5,-76 400.5,-96"/>
<text text-anchor="middle" x="355" y="-82.5" font-family="Helvetica,sans-Serif" font-size="10.00">DeInitAnimations</text>
</a>
</g>
</g>
<!-- Node5&#45;&gt;Node6 -->
<g id="edge5_Node000005_Node000006" class="edge">
<title>Node5&#45;&gt;Node6</title>
<g id="a_edge5_Node000005_Node000006"><a xlink:title=" ">
<path fill="none" stroke="#63b8ff" d="M244.75,-58.48C262.31,-62.91 282.96,-68.11 301.55,-72.79"/>
<polygon fill="#63b8ff" stroke="#63b8ff" points="300.49,-76.13 311.04,-75.18 302.2,-69.34 300.49,-76.13"/>
</a>
</g>
</g>
<!-- Node7 -->
<g id="Node000007" class="node">
<title>Node7</title>
<g id="a_Node000007"><a xlink:href="impactinfo_8c.html#a1ecd20c21ac20adac4eec99f3fb27114" target="_top" xlink:title=" ">
<polygon fill="white" stroke="#666666" points="399.38,-58 310.62,-58 310.62,-38 399.38,-38 399.38,-58"/>
<text text-anchor="middle" x="355" y="-44.5" font-family="Helvetica,sans-Serif" font-size="10.00">ImpactInfoDeInit</text>
</a>
</g>
</g>
<!-- Node5&#45;&gt;Node7 -->
<g id="edge6_Node000005_Node000007" class="edge">
<title>Node5&#45;&gt;Node7</title>
<g id="a_edge6_Node000005_Node000007"><a xlink:title=" ">
<path fill="none" stroke="#63b8ff" d="M245.55,-48C262.14,-48 281.38,-48 299.01,-48"/>
<polygon fill="#63b8ff" stroke="#63b8ff" points="298.8,-51.5 308.8,-48 298.8,-44.5 298.8,-51.5"/>
</a>
</g>
</g>
<!-- Node8 -->
<g id="Node000008" class="node">
<title>Node8</title>
<g id="a_Node000008"><a xlink:href="object_8c.html#a1990d7344bbf3ef06205a6671cf38ffe" target="_top" xlink:title="Deinitialize an object.">
<polygon fill="white" stroke="#666666" points="382.12,-20 327.88,-20 327.88,0 382.12,0 382.12,-20"/>
<text text-anchor="middle" x="355" y="-6.5" font-family="Helvetica,sans-Serif" font-size="10.00">objDeinit</text>
</a>
</g>
</g>
<!-- Node5&#45;&gt;Node8 -->
<g id="edge7_Node000005_Node000008" class="edge">
<title>Node5&#45;&gt;Node8</title>
<g id="a_edge7_Node000005_Node000008"><a xlink:title=" ">
<path fill="none" stroke="#63b8ff" d="M244.75,-37.52C267.23,-31.85 294.75,-24.92 316.55,-19.43"/>
<polygon fill="#63b8ff" stroke="#63b8ff" points="317.38,-22.83 326.22,-17 315.67,-16.05 317.38,-22.83"/>
</a>
</g>
</g>
</g>
</svg>
