<?xml version="1.0" encoding="UTF-8" standalone="no"?>
<!DOCTYPE svg PUBLIC "-//W3C//DTD SVG 1.1//EN"
 "http://www.w3.org/Graphics/SVG/1.1/DTD/svg11.dtd">
<!-- Generated by graphviz version 12.2.1 (20241206.2353)
 -->
<!-- Title: ImpactInfoInit Pages: 1 -->
<svg width="799pt" height="66pt"
 viewBox="0.00 0.00 798.75 66.00" xmlns="http://www.w3.org/2000/svg" xmlns:xlink="http://www.w3.org/1999/xlink">
<g id="graph0" class="graph" transform="scale(1 1) rotate(0) translate(4 62)">
<title>ImpactInfoInit</title>
<!-- Node1 -->
<g id="Node000001" class="node">
<title>Node1</title>
<g id="a_Node000001"><a xlink:title="Initializes the impact info component. On all characters.">
<polygon fill="#999999" stroke="#666666" points="790.75,-39 714.75,-39 714.75,-19 790.75,-19 790.75,-39"/>
<text text-anchor="middle" x="752.75" y="-25.5" font-family="Helvetica,sans-Serif" font-size="10.00">ImpactInfoInit</text>
</a>
</g>
</g>
<!-- Node2 -->
<g id="Node000002" class="node">
<title>Node2</title>
<g id="a_Node000002"><a xlink:href="character_8c.html#a1707c81b8925e6c1df11c7f60a896077" target="_top" xlink:title="Allocates &amp; initializes a character object Initializing a character object.">
<polygon fill="white" stroke="#666666" points="544.25,-58 467.5,-58 467.5,-38 544.25,-38 544.25,-58"/>
<text text-anchor="middle" x="505.88" y="-44.5" font-family="Helvetica,sans-Serif" font-size="10.00">characterNew</text>
</a>
</g>
</g>
<!-- Node1&#45;&gt;Node2 -->
<g id="edge1_Node000001_Node000002" class="edge">
<title>Node1&#45;&gt;Node2</title>
<g id="a_edge1_Node000001_Node000002"><a xlink:title=" ">
<path fill="none" stroke="#63b8ff" d="M702.97,-32.78C656.42,-36.4 587.26,-41.76 544.73,-45.06"/>
<polygon fill="#63b8ff" stroke="#63b8ff" points="703.08,-36.29 712.78,-32.02 702.54,-29.31 703.08,-36.29"/>
</a>
</g>
</g>
<!-- Node6 -->
<g id="Node000006" class="node">
<title>Node6</title>
<g id="a_Node000006"><a xlink:href="hadouken_8c.html#ab8b1865d7e82def2a232ebb75219f61c" target="_top" xlink:title=" ">
<polygon fill="white" stroke="#666666" points="678.75,-20 600.5,-20 600.5,0 678.75,0 678.75,-20"/>
<text text-anchor="middle" x="639.62" y="-6.5" font-family="Helvetica,sans-Serif" font-size="10.00">hadoukenNew</text>
</a>
</g>
</g>
<!-- Node1&#45;&gt;Node6 -->
<g id="edge5_Node000001_Node000006" class="edge">
<title>Node1&#45;&gt;Node6</title>
<g id="a_edge5_Node000001_Node000006"><a xlink:title=" ">
<path fill="none" stroke="#63b8ff" d="M703.25,-20.71C695.19,-19.33 686.94,-17.92 679.17,-16.59"/>
<polygon fill="#63b8ff" stroke="#63b8ff" points="702.5,-24.13 712.95,-22.37 703.68,-17.23 702.5,-24.13"/>
</a>
</g>
</g>
<!-- Node3 -->
<g id="Node000003" class="node">
<title>Node3</title>
<g id="a_Node000003"><a xlink:href="levelmgr_8c.html#a5f61ddac5c680554f5ca9ad4af57d0fe" target="_top" xlink:title="Loads the level and all required objects/assets.">
<polygon fill="white" stroke="#666666" points="258.75,-39 185,-39 185,-19 258.75,-19 258.75,-39"/>
<text text-anchor="middle" x="221.88" y="-25.5" font-family="Helvetica,sans-Serif" font-size="10.00">levelMgrLoad</text>
</a>
</g>
</g>
<!-- Node2&#45;&gt;Node3 -->
<g id="edge2_Node000002_Node000003" class="edge">
<title>Node2&#45;&gt;Node3</title>
<g id="a_edge2_Node000002_Node000003"><a xlink:title=" ">
<path fill="none" stroke="#63b8ff" d="M455.71,-44.69C399.58,-40.91 309.09,-34.81 259.05,-31.44"/>
<polygon fill="#63b8ff" stroke="#63b8ff" points="455.41,-48.18 465.63,-45.36 455.88,-41.19 455.41,-48.18"/>
</a>
</g>
</g>
<!-- Node4 -->
<g id="Node000004" class="node">
<title>Node4</title>
<g id="a_Node000004"><a xlink:href="game_8c.html#ab30d311d5430e1450c49e0a71da13387" target="_top" xlink:title="Function declarations and typedefs and extern global var declarations.">
<polygon fill="white" stroke="#666666" points="149,-39 90.25,-39 90.25,-19 149,-19 149,-39"/>
<text text-anchor="middle" x="119.62" y="-25.5" font-family="Helvetica,sans-Serif" font-size="10.00">_gameInit</text>
</a>
</g>
</g>
<!-- Node3&#45;&gt;Node4 -->
<g id="edge3_Node000003_Node000004" class="edge">
<title>Node3&#45;&gt;Node4</title>
<g id="a_edge3_Node000003_Node000004"><a xlink:title=" ">
<path fill="none" stroke="#63b8ff" d="M173.23,-29C165.02,-29 156.72,-29 149.22,-29"/>
<polygon fill="#63b8ff" stroke="#63b8ff" points="173.17,-32.5 183.17,-29 173.17,-25.5 173.17,-32.5"/>
</a>
</g>
</g>
<!-- Node5 -->
<g id="Node000005" class="node">
<title>Node5</title>
<g id="a_Node000005"><a xlink:href="game_8c.html#a661c2abc03926acfaeb93b4ae7db4943" target="_top" xlink:title="Program Entry Point (WinMain). Part of the base game framework.">
<polygon fill="white" stroke="#666666" points="54.25,-39 0,-39 0,-19 54.25,-19 54.25,-39"/>
<text text-anchor="middle" x="27.12" y="-25.5" font-family="Helvetica,sans-Serif" font-size="10.00">WinMain</text>
</a>
</g>
</g>
<!-- Node4&#45;&gt;Node5 -->
<g id="edge4_Node000004_Node000005" class="edge">
<title>Node4&#45;&gt;Node5</title>
<g id="a_edge4_Node000004_Node000005"><a xlink:title=" ">
<path fill="none" stroke="#63b8ff" d="M78.48,-29C70.44,-29 62.17,-29 54.73,-29"/>
<polygon fill="#63b8ff" stroke="#63b8ff" points="78.48,-32.5 88.48,-29 78.48,-25.5 78.48,-32.5"/>
</a>
</g>
</g>
<!-- Node7 -->
<g id="Node000007" class="node">
<title>Node7</title>
<g id="a_Node000007"><a xlink:href="levelmgr_8c.html#acbae5b164c935cc3a4274be9425eb8e2" target="_top" xlink:title="Character holds reference to this as func pointer, they create a new hadouken in their hadouken behav...">
<polygon fill="white" stroke="#666666" points="564.5,-20 447.25,-20 447.25,0 564.5,0 564.5,-20"/>
<text text-anchor="middle" x="505.88" y="-6.5" font-family="Helvetica,sans-Serif" font-size="10.00">CreateActiveHadouken</text>
</a>
</g>
</g>
<!-- Node6&#45;&gt;Node7 -->
<g id="edge6_Node000006_Node000007" class="edge">
<title>Node6&#45;&gt;Node7</title>
<g id="a_edge6_Node000006_Node000007"><a xlink:title=" ">
<path fill="none" stroke="#63b8ff" d="M588.9,-10C581.01,-10 572.79,-10 564.73,-10"/>
<polygon fill="#63b8ff" stroke="#63b8ff" points="588.65,-13.5 598.65,-10 588.65,-6.5 588.65,-13.5"/>
</a>
</g>
</g>
<!-- Node8 -->
<g id="Node000008" class="node">
<title>Node8</title>
<g id="a_Node000008"><a xlink:href="game_8c.html#a9068323715d31a357bef377daa7e10be" target="_top" xlink:title="This callback should be with the character object which it will use to spawn hadouken in the correpso...">
<polygon fill="white" stroke="#666666" points="411.25,-20 294.75,-20 294.75,0 411.25,0 411.25,-20"/>
<text text-anchor="middle" x="353" y="-6.5" font-family="Helvetica,sans-Serif" font-size="10.00">GameSpawnHadouken</text>
</a>
</g>
</g>
<!-- Node7&#45;&gt;Node8 -->
<g id="edge7_Node000007_Node000008" class="edge">
<title>Node7&#45;&gt;Node8</title>
<g id="a_edge7_Node000007_Node000008"><a xlink:title=" ">
<path fill="none" stroke="#63b8ff" d="M435.65,-10C427.57,-10 419.39,-10 411.5,-10"/>
<polygon fill="#63b8ff" stroke="#63b8ff" points="435.46,-13.5 445.46,-10 435.46,-6.5 435.46,-13.5"/>
</a>
</g>
</g>
<!-- Node8&#45;&gt;Node3 -->
<g id="edge8_Node000008_Node000003" class="edge">
<title>Node8&#45;&gt;Node3</title>
<g id="a_edge8_Node000008_Node000003"><a xlink:title=" ">
<path fill="none" stroke="#63b8ff" d="M283.48,-20.08C275.02,-21.33 266.65,-22.56 258.95,-23.69"/>
<polygon fill="#63b8ff" stroke="#63b8ff" points="283.73,-23.58 293.11,-18.66 282.71,-16.66 283.73,-23.58"/>
</a>
</g>
</g>
</g>
</svg>
