<?xml version="1.0" encoding="UTF-8" standalone="no"?>
<!DOCTYPE svg PUBLIC "-//W3C//DTD SVG 1.1//EN"
 "http://www.w3.org/Graphics/SVG/1.1/DTD/svg11.dtd">
<!-- Generated by graphviz version 12.2.1 (20241206.2353)
 -->
<!-- Title: Retract_GameplayOnStart Pages: 1 -->
<svg width="484pt" height="66pt"
 viewBox="0.00 0.00 484.25 66.00" xmlns="http://www.w3.org/2000/svg" xmlns:xlink="http://www.w3.org/1999/xlink">
<g id="graph0" class="graph" transform="scale(1 1) rotate(0) translate(4 62)">
<title>Retract_GameplayOnStart</title>
<!-- Node1 -->
<g id="Node000001" class="node">
<title>Node1</title>
<g id="a_Node000001"><a xlink:title=" ">
<polygon fill="#999999" stroke="#666666" points="131.5,-39 0,-39 0,-19 131.5,-19 131.5,-39"/>
<text text-anchor="middle" x="65.75" y="-25.5" font-family="Helvetica,sans-Serif" font-size="10.00">Retract_GameplayOnStart</text>
</a>
</g>
</g>
<!-- Node2 -->
<g id="Node000002" class="node">
<title>Node2</title>
<g id="a_Node000002"><a xlink:href="character_8c.html#a5ebc6906e36acf7e8a3f4d7fc4333e6b" target="_top" xlink:title=" ">
<polygon fill="white" stroke="#666666" points="336.5,-58 167.5,-58 167.5,-38 336.5,-38 336.5,-58"/>
<text text-anchor="middle" x="252" y="-44.5" font-family="Helvetica,sans-Serif" font-size="10.00">GetCharacterGameplayComponent</text>
</a>
</g>
</g>
<!-- Node1&#45;&gt;Node2 -->
<g id="edge1_Node000001_Node000002" class="edge">
<title>Node1&#45;&gt;Node2</title>
<g id="a_edge1_Node000001_Node000002"><a xlink:title=" ">
<path fill="none" stroke="#63b8ff" d="M131.97,-35.73C139.71,-36.52 147.73,-37.35 155.78,-38.18"/>
<polygon fill="#63b8ff" stroke="#63b8ff" points="155.34,-41.65 165.65,-39.2 156.06,-34.69 155.34,-41.65"/>
</a>
</g>
</g>
<!-- Node3 -->
<g id="Node000003" class="node">
<title>Node3</title>
<g id="a_Node000003"><a xlink:href="object_8c.html#acae5aeff7fda52f6bf3b706b50215399" target="_top" xlink:title=" ">
<polygon fill="white" stroke="#666666" points="308.38,-20 195.62,-20 195.62,0 308.38,0 308.38,-20"/>
<text text-anchor="middle" x="252" y="-6.5" font-family="Helvetica,sans-Serif" font-size="10.00">MoveObjectTransform</text>
</a>
</g>
</g>
<!-- Node1&#45;&gt;Node3 -->
<g id="edge2_Node000001_Node000003" class="edge">
<title>Node1&#45;&gt;Node3</title>
<g id="a_edge2_Node000001_Node000003"><a xlink:title=" ">
<path fill="none" stroke="#63b8ff" d="M131.97,-22.27C148.95,-20.52 167.27,-18.63 184.33,-16.87"/>
<polygon fill="#63b8ff" stroke="#63b8ff" points="184.24,-20.4 193.83,-15.9 183.52,-13.44 184.24,-20.4"/>
</a>
</g>
</g>
<!-- Node4 -->
<g id="Node000004" class="node">
<title>Node4</title>
<g id="a_Node000004"><a xlink:href="object_8c.html#a01e09388666a70c05cebd36f3248ae4e" target="_top" xlink:title=" ">
<polygon fill="white" stroke="#666666" points="476.25,-20 372.5,-20 372.5,0 476.25,0 476.25,-20"/>
<text text-anchor="middle" x="424.38" y="-6.5" font-family="Helvetica,sans-Serif" font-size="10.00">SetObjectTransform</text>
</a>
</g>
</g>
<!-- Node3&#45;&gt;Node4 -->
<g id="edge3_Node000003_Node000004" class="edge">
<title>Node3&#45;&gt;Node4</title>
<g id="a_edge3_Node000003_Node000004"><a xlink:title=" ">
<path fill="none" stroke="#63b8ff" d="M308.79,-10C325.35,-10 343.59,-10 360.57,-10"/>
<polygon fill="#63b8ff" stroke="#63b8ff" points="360.56,-13.5 370.56,-10 360.56,-6.5 360.56,-13.5"/>
</a>
</g>
</g>
</g>
</svg>
