<?xml version="1.0" encoding="UTF-8" standalone="no"?>
<!DOCTYPE svg PUBLIC "-//W3C//DTD SVG 1.1//EN"
 "http://www.w3.org/Graphics/SVG/1.1/DTD/svg11.dtd">
<!-- Generated by graphviz version 12.2.1 (20241206.2353)
 -->
<!-- Title: canStartActionsQueue_t Pages: 1 -->
<svg width="511pt" height="432pt"
 viewBox="0.00 0.00 510.67 432.00" xmlns="http://www.w3.org/2000/svg" xmlns:xlink="http://www.w3.org/1999/xlink">
<g id="graph0" class="graph" transform="scale(1 1) rotate(0) translate(4 428)">
<title>canStartActionsQueue_t</title>
<!-- Node1 -->
<g id="Node000001" class="node">
<title>Node1</title>
<g id="a_Node000001"><a xlink:title="Not used in current application but this looks like a possibility if I want to expand the game.">
<polygon fill="#999999" stroke="none" points="489.25,-68 374.75,-68 374.75,0 489.25,0 489.25,-68"/>
<text text-anchor="start" x="378.75" y="-54.5" font-family="Helvetica,sans-Serif" font-size="10.00">canStartActionsQueue_t</text>
<text text-anchor="start" x="392.75" y="-38.5" font-family="Helvetica,sans-Serif" font-size="10.00">+</text>
<text text-anchor="start" x="416.75" y="-38.5" font-family="Helvetica,sans-Serif" font-size="10.00">len</text>
<text text-anchor="start" x="392.75" y="-22.5" font-family="Helvetica,sans-Serif" font-size="10.00">+</text>
<text text-anchor="start" x="416.75" y="-22.5" font-family="Helvetica,sans-Serif" font-size="10.00">currIndex</text>
<text text-anchor="start" x="430.5" y="-6.5" font-family="Helvetica,sans-Serif" font-size="10.00"> </text>
<polygon fill="#666666" stroke="#666666" points="374.75,-50 374.75,-50 489.25,-50 489.25,-50 374.75,-50"/>
<polygon fill="#666666" stroke="#666666" points="374.75,-18 374.75,-18 414.75,-18 414.75,-18 374.75,-18"/>
<polygon fill="#666666" stroke="#666666" points="414.75,-18 414.75,-18 489.25,-18 489.25,-18 414.75,-18"/>
<polygon fill="none" stroke="#666666" points="374.75,0 374.75,-68 489.25,-68 489.25,0 374.75,0"/>
</a>
</g>
</g>
<!-- Node2 -->
<g id="Node000002" class="node">
<title>Node2</title>
<g id="a_Node000002"><a xlink:href="structaction__t.html" target="_top" xlink:title="You can think of an action as a base behaviour or as the actual thing that runs the functionality....">
<polygon fill="white" stroke="none" points="458.25,-200 405.75,-200 405.75,-116 458.25,-116 458.25,-200"/>
<text text-anchor="start" x="414.75" y="-186.5" font-family="Helvetica,sans-Serif" font-size="10.00">action_t</text>
<text text-anchor="start" x="409.75" y="-170.5" font-family="Helvetica,sans-Serif" font-size="10.00">+</text>
<text text-anchor="start" x="419.75" y="-170.5" font-family="Helvetica,sans-Serif" font-size="10.00">priority</text>
<text text-anchor="start" x="409.75" y="-154.5" font-family="Helvetica,sans-Serif" font-size="10.00">+</text>
<text text-anchor="start" x="419.75" y="-154.5" font-family="Helvetica,sans-Serif" font-size="10.00">duration</text>
<text text-anchor="start" x="409.75" y="-138.5" font-family="Helvetica,sans-Serif" font-size="10.00">+</text>
<text text-anchor="start" x="419.75" y="-138.5" font-family="Helvetica,sans-Serif" font-size="10.00">status</text>
<text text-anchor="start" x="430.5" y="-122.5" font-family="Helvetica,sans-Serif" font-size="10.00"> </text>
<polygon fill="#666666" stroke="#666666" points="405.75,-182 405.75,-182 458.25,-182 458.25,-182 405.75,-182"/>
<polygon fill="#666666" stroke="#666666" points="405.75,-134 405.75,-134 417.75,-134 417.75,-134 405.75,-134"/>
<polygon fill="#666666" stroke="#666666" points="417.75,-134 417.75,-134 458.25,-134 458.25,-134 417.75,-134"/>
<polygon fill="none" stroke="#666666" points="405.75,-116 405.75,-200 458.25,-200 458.25,-116 405.75,-116"/>
</a>
</g>
</g>
<!-- Node2&#45;&gt;Node1 -->
<g id="edge1_Node000001_Node000002" class="edge">
<title>Node2&#45;&gt;Node1</title>
<g id="a_edge1_Node000001_Node000002"><a xlink:title=" ">
<path fill="none" stroke="#63b8ff" d="M432,-116.04C432,-104.67 432,-92.26 432,-80.64"/>
<polygon fill="none" stroke="#63b8ff" points="432,-80.86 428,-74.86 432,-68.86 436,-74.86 432,-80.86"/>
</a>
</g>
<text text-anchor="middle" x="449.62" y="-88.5" font-family="Helvetica,sans-Serif" font-size="10.00" fill="grey"> +queue</text>
</g>
<!-- Node3 -->
<g id="Node000003" class="node">
<title>Node3</title>
<g id="a_Node000003"><a xlink:href="structobject__t.html" target="_top" xlink:title=" ">
<polygon fill="white" stroke="none" points="193,-424 139,-424 139,-308 193,-308 193,-424"/>
<text text-anchor="start" x="148.75" y="-410.5" font-family="Helvetica,sans-Serif" font-size="10.00">object_t</text>
<text text-anchor="start" x="143" y="-394.5" font-family="Helvetica,sans-Serif" font-size="10.00">+</text>
<text text-anchor="start" x="153" y="-394.5" font-family="Helvetica,sans-Serif" font-size="10.00">type</text>
<text text-anchor="start" x="143" y="-378.5" font-family="Helvetica,sans-Serif" font-size="10.00">+</text>
<text text-anchor="start" x="153" y="-378.5" font-family="Helvetica,sans-Serif" font-size="10.00">levelDef</text>
<text text-anchor="start" x="143" y="-362.5" font-family="Helvetica,sans-Serif" font-size="10.00">+</text>
<text text-anchor="start" x="153" y="-362.5" font-family="Helvetica,sans-Serif" font-size="10.00">position</text>
<text text-anchor="start" x="143" y="-346.5" font-family="Helvetica,sans-Serif" font-size="10.00">+</text>
<text text-anchor="start" x="153" y="-346.5" font-family="Helvetica,sans-Serif" font-size="10.00">velocity</text>
<text text-anchor="start" x="143" y="-330.5" font-family="Helvetica,sans-Serif" font-size="10.00">+</text>
<text text-anchor="start" x="153" y="-330.5" font-family="Helvetica,sans-Serif" font-size="10.00">size</text>
<text text-anchor="start" x="164.5" y="-314.5" font-family="Helvetica,sans-Serif" font-size="10.00"> </text>
<polygon fill="#666666" stroke="#666666" points="139,-406 139,-406 193,-406 193,-406 139,-406"/>
<polygon fill="#666666" stroke="#666666" points="139,-326 139,-326 151,-326 151,-326 139,-326"/>
<polygon fill="#666666" stroke="#666666" points="151,-326 151,-326 193,-326 193,-326 151,-326"/>
<polygon fill="none" stroke="#666666" points="139,-308 139,-424 193,-424 193,-308 139,-308"/>
</a>
</g>
</g>
<!-- Node3&#45;&gt;Node2 -->
<g id="edge2_Node000002_Node000003" class="edge">
<title>Node3&#45;&gt;Node2</title>
<g id="a_edge2_Node000002_Node000003"><a xlink:title=" ">
<path fill="none" stroke="#63b8ff" d="M192.7,-359.32C227.44,-350.53 287.61,-330.27 321,-290 342.16,-264.48 320.93,-244.76 340.5,-218 354.2,-199.26 375.81,-184.92 394.59,-175.08"/>
<polygon fill="none" stroke="#63b8ff" points="394.55,-175.1 398.16,-168.86 405.31,-169.79 401.7,-176.03 394.55,-175.1"/>
</a>
</g>
<text text-anchor="middle" x="392.25" y="-280.5" font-family="Helvetica,sans-Serif" font-size="10.00" fill="grey"> +animationFunc</text>
<text text-anchor="middle" x="392.25" y="-268.5" font-family="Helvetica,sans-Serif" font-size="10.00" fill="grey">+animationOnStartFunc</text>
<text text-anchor="middle" x="392.25" y="-256.5" font-family="Helvetica,sans-Serif" font-size="10.00" fill="grey">+canStartFunc</text>
<text text-anchor="middle" x="392.25" y="-244.5" font-family="Helvetica,sans-Serif" font-size="10.00" fill="grey">+cleanupFunc</text>
<text text-anchor="middle" x="392.25" y="-232.5" font-family="Helvetica,sans-Serif" font-size="10.00" fill="grey">+gameplayFunc</text>
<text text-anchor="middle" x="392.25" y="-220.5" font-family="Helvetica,sans-Serif" font-size="10.00" fill="grey">+gameplayOnStartFunc</text>
</g>
<!-- Node4 -->
<g id="Node000004" class="node">
<title>Node4</title>
<g id="a_Node000004"><a xlink:href="structobject__vtable__t.html" target="_top" xlink:title=" ">
<polygon fill="white" stroke="none" points="74,-184 0,-184 0,-132 74,-132 74,-184"/>
<text text-anchor="start" x="4" y="-170.5" font-family="Helvetica,sans-Serif" font-size="10.00">object_vtable_t</text>
<text text-anchor="start" x="35.5" y="-154.5" font-family="Helvetica,sans-Serif" font-size="10.00"> </text>
<text text-anchor="start" x="35.5" y="-138.5" font-family="Helvetica,sans-Serif" font-size="10.00"> </text>
<polygon fill="#666666" stroke="#666666" points="0,-166 0,-166 74,-166 74,-166 0,-166"/>
<polygon fill="#666666" stroke="#666666" points="0,-150 0,-150 74,-150 74,-150 0,-150"/>
<polygon fill="none" stroke="#666666" points="0,-132 0,-184 74,-184 74,-132 0,-132"/>
</a>
</g>
</g>
<!-- Node3&#45;&gt;Node4 -->
<g id="edge4_Node000004_Node000003" class="edge">
<title>Node3&#45;&gt;Node4</title>
<g id="a_edge4_Node000004_Node000003"><a xlink:title=" ">
<path fill="none" stroke="#63b8ff" d="M139.04,-359.9C104.64,-351.78 46.51,-332.3 20.75,-290 3.54,-261.74 10.91,-223.69 20.61,-195.87"/>
<polygon fill="none" stroke="#63b8ff" points="20.58,-195.95 18.97,-188.93 24.83,-184.73 26.45,-191.76 20.58,-195.95"/>
</a>
</g>
<text text-anchor="middle" x="38.38" y="-256.5" font-family="Helvetica,sans-Serif" font-size="10.00" fill="grey"> +draw</text>
<text text-anchor="middle" x="38.38" y="-244.5" font-family="Helvetica,sans-Serif" font-size="10.00" fill="grey">+update</text>
</g>
<!-- Node6 -->
<g id="Node000006" class="node">
<title>Node6</title>
<g id="a_Node000006"><a xlink:href="structcollision_info__t.html" target="_top" xlink:title="The information about the other object which has collided with this collider.">
<polygon fill="white" stroke="none" points="173,-184 105,-184 105,-132 173,-132 173,-184"/>
<text text-anchor="start" x="109" y="-170.5" font-family="Helvetica,sans-Serif" font-size="10.00">collisionInfo_t</text>
<text text-anchor="start" x="137.5" y="-154.5" font-family="Helvetica,sans-Serif" font-size="10.00"> </text>
<text text-anchor="start" x="137.5" y="-138.5" font-family="Helvetica,sans-Serif" font-size="10.00"> </text>
<polygon fill="#666666" stroke="#666666" points="105,-166 105,-166 173,-166 173,-166 105,-166"/>
<polygon fill="#666666" stroke="#666666" points="105,-150 105,-150 173,-150 173,-150 105,-150"/>
<polygon fill="none" stroke="#666666" points="105,-132 105,-184 173,-184 173,-132 105,-132"/>
</a>
</g>
</g>
<!-- Node3&#45;&gt;Node6 -->
<g id="edge7_Node000006_Node000003" class="edge">
<title>Node3&#45;&gt;Node6</title>
<g id="a_edge7_Node000006_Node000003"><a xlink:title=" ">
<path fill="none" stroke="#63b8ff" d="M144.38,-308.17C142.71,-302.1 141.28,-295.97 140.25,-290 134.9,-258.89 134.99,-223 136.19,-196.66"/>
<polygon fill="none" stroke="#63b8ff" points="136.18,-196.72 132.52,-190.51 136.84,-184.74 140.51,-190.95 136.18,-196.72"/>
</a>
</g>
<text text-anchor="middle" x="155.62" y="-250.5" font-family="Helvetica,sans-Serif" font-size="10.00" fill="grey"> +other</text>
</g>
<!-- Node7 -->
<g id="Node000007" class="node">
<title>Node7</title>
<g id="a_Node000007"><a xlink:href="structcollider__vtable__t.html" target="_top" xlink:title="The collider vtable.">
<polygon fill="white" stroke="none" points="269.25,-184 190.75,-184 190.75,-132 269.25,-132 269.25,-184"/>
<text text-anchor="start" x="194.75" y="-170.5" font-family="Helvetica,sans-Serif" font-size="10.00">collider_vtable_t</text>
<text text-anchor="start" x="228.5" y="-154.5" font-family="Helvetica,sans-Serif" font-size="10.00"> </text>
<text text-anchor="start" x="228.5" y="-138.5" font-family="Helvetica,sans-Serif" font-size="10.00"> </text>
<polygon fill="#666666" stroke="#666666" points="190.75,-166 190.75,-166 269.25,-166 269.25,-166 190.75,-166"/>
<polygon fill="#666666" stroke="#666666" points="190.75,-150 190.75,-150 269.25,-150 269.25,-150 190.75,-150"/>
<polygon fill="none" stroke="#666666" points="190.75,-132 190.75,-184 269.25,-184 269.25,-132 190.75,-132"/>
</a>
</g>
</g>
<!-- Node3&#45;&gt;Node7 -->
<g id="edge9_Node000007_Node000003" class="edge">
<title>Node3&#45;&gt;Node7</title>
<g id="a_edge9_Node000007_Node000003"><a xlink:title=" ">
<path fill="none" stroke="#63b8ff" d="M171.97,-308.19C176.1,-280.35 182.92,-246.72 194,-218 197,-210.21 201.03,-202.3 205.31,-194.91"/>
<polygon fill="none" stroke="#63b8ff" points="205.37,-194.8 205.1,-187.6 211.65,-184.58 211.92,-191.78 205.37,-194.8"/>
</a>
</g>
<text text-anchor="middle" x="245" y="-256.5" font-family="Helvetica,sans-Serif" font-size="10.00" fill="grey"> +onCollisionEnterFunc</text>
<text text-anchor="middle" x="245" y="-244.5" font-family="Helvetica,sans-Serif" font-size="10.00" fill="grey">+processImpact</text>
</g>
<!-- Node4&#45;&gt;Node3 -->
<g id="edge3_Node000003_Node000004" class="edge">
<title>Node4&#45;&gt;Node3</title>
<g id="a_edge3_Node000003_Node000004"><a xlink:title=" ">
<path fill="none" stroke="#63b8ff" d="M45.63,-183.87C55.69,-211.16 73.91,-255.65 96.75,-290 106.27,-304.32 118.53,-318.57 130.08,-330.73"/>
<polygon fill="none" stroke="#63b8ff" points="130.11,-330.77 137.16,-332.27 138.49,-339.36 131.44,-337.86 130.11,-330.77"/>
</a>
</g>
<text text-anchor="middle" x="114.38" y="-250.5" font-family="Helvetica,sans-Serif" font-size="10.00" fill="grey"> +vtable</text>
</g>
<!-- Node5 -->
<g id="Node000005" class="node">
<title>Node5</title>
<g id="a_Node000005"><a xlink:href="structcollider__t.html" target="_top" xlink:title="An object that wants to participate in collisions must own a collider. It holds information about the...">
<polygon fill="white" stroke="none" points="253.5,-60 206.5,-60 206.5,-8 253.5,-8 253.5,-60"/>
<text text-anchor="start" x="210.5" y="-46.5" font-family="Helvetica,sans-Serif" font-size="10.00">collider_t</text>
<text text-anchor="start" x="228.5" y="-30.5" font-family="Helvetica,sans-Serif" font-size="10.00"> </text>
<text text-anchor="start" x="228.5" y="-14.5" font-family="Helvetica,sans-Serif" font-size="10.00"> </text>
<polygon fill="#666666" stroke="#666666" points="206.5,-42 206.5,-42 253.5,-42 253.5,-42 206.5,-42"/>
<polygon fill="#666666" stroke="#666666" points="206.5,-26 206.5,-26 253.5,-26 253.5,-26 206.5,-26"/>
<polygon fill="none" stroke="#666666" points="206.5,-8 206.5,-60 253.5,-60 253.5,-8 206.5,-8"/>
</a>
</g>
</g>
<!-- Node5&#45;&gt;Node3 -->
<g id="edge5_Node000003_Node000005" class="edge">
<title>Node5&#45;&gt;Node3</title>
<g id="a_edge5_Node000003_Node000005"><a xlink:title=" ">
<path fill="none" stroke="#63b8ff" d="M251.97,-59.99C258.13,-67.91 264.39,-76.97 269,-86 310.6,-167.45 341.74,-210.8 296,-290 276.59,-323.61 235.74,-343.5 204.99,-354.26"/>
<polygon fill="none" stroke="#63b8ff" points="205.19,-354.19 200.73,-359.86 193.79,-357.92 198.25,-352.25 205.19,-354.19"/>
</a>
</g>
<text text-anchor="middle" x="337.13" y="-154.5" font-family="Helvetica,sans-Serif" font-size="10.00" fill="grey"> +collider</text>
</g>
<!-- Node6&#45;&gt;Node5 -->
<g id="edge6_Node000005_Node000006" class="edge">
<title>Node6&#45;&gt;Node5</title>
<g id="a_edge6_Node000005_Node000006"><a xlink:title=" ">
<path fill="none" stroke="#63b8ff" d="M157.63,-132.02C170.88,-114.25 188.87,-90.14 203.6,-70.4"/>
<polygon fill="none" stroke="#63b8ff" points="203.68,-70.29 204.06,-63.09 210.85,-60.67 210.47,-67.87 203.68,-70.29"/>
</a>
</g>
<text text-anchor="middle" x="202.32" y="-88.5" font-family="Helvetica,sans-Serif" font-size="10.00" fill="grey"> +info</text>
</g>
<!-- Node7&#45;&gt;Node5 -->
<g id="edge8_Node000005_Node000007" class="edge">
<title>Node7&#45;&gt;Node5</title>
<g id="a_edge8_Node000005_Node000007"><a xlink:title=" ">
<path fill="none" stroke="#63b8ff" d="M230,-132.02C230,-114.99 230,-92.14 230,-72.89"/>
<polygon fill="none" stroke="#63b8ff" points="230,-72.85 226,-66.85 230,-60.85 234,-66.85 230,-72.85"/>
</a>
</g>
<text text-anchor="middle" x="247.62" y="-88.5" font-family="Helvetica,sans-Serif" font-size="10.00" fill="grey"> +vtable</text>
</g>
<!-- Node8 -->
<g id="Node000008" class="node">
<title>Node8</title>
<g id="a_Node000008"><a xlink:href="structpayload__t.html" target="_top" xlink:title="Might need to recover to old state or store some variables between function calls for the controller ...">
<polygon fill="white" stroke="none" points="495.88,-400 444.12,-400 444.12,-332 495.88,-332 495.88,-400"/>
<text text-anchor="start" x="449" y="-386.5" font-family="Helvetica,sans-Serif" font-size="10.00">payload_t</text>
<text text-anchor="start" x="448.12" y="-370.5" font-family="Helvetica,sans-Serif" font-size="10.00">+</text>
<text text-anchor="start" x="458.12" y="-370.5" font-family="Helvetica,sans-Serif" font-size="10.00">position</text>
<text text-anchor="start" x="448.12" y="-354.5" font-family="Helvetica,sans-Serif" font-size="10.00">+</text>
<text text-anchor="start" x="458.12" y="-354.5" font-family="Helvetica,sans-Serif" font-size="10.00">size</text>
<text text-anchor="start" x="468.5" y="-338.5" font-family="Helvetica,sans-Serif" font-size="10.00"> </text>
<polygon fill="#666666" stroke="#666666" points="444.12,-382 444.12,-382 495.88,-382 495.88,-382 444.12,-382"/>
<polygon fill="#666666" stroke="#666666" points="444.12,-350 444.12,-350 456.12,-350 456.12,-350 444.12,-350"/>
<polygon fill="#666666" stroke="#666666" points="456.12,-350 456.12,-350 495.88,-350 495.88,-350 456.12,-350"/>
<polygon fill="none" stroke="#666666" points="444.12,-332 444.12,-400 495.88,-400 495.88,-332 444.12,-332"/>
</a>
</g>
</g>
<!-- Node8&#45;&gt;Node2 -->
<g id="edge10_Node000002_Node000008" class="edge">
<title>Node8&#45;&gt;Node2</title>
<g id="a_edge10_Node000002_Node000008"><a xlink:title=" ">
<path fill="none" stroke="#63b8ff" d="M466.19,-332.11C462.46,-302.19 456.16,-256.89 448,-218 447.61,-216.15 447.2,-214.27 446.77,-212.38"/>
<polygon fill="none" stroke="#63b8ff" points="446.76,-212.33 441.46,-207.44 443.94,-200.67 449.24,-205.56 446.76,-212.33"/>
</a>
</g>
<text text-anchor="middle" x="481.3" y="-250.5" font-family="Helvetica,sans-Serif" font-size="10.00" fill="grey"> +payload</text>
</g>
</g>
</svg>
