<?xml version="1.0" encoding="UTF-8" standalone="no"?>
<!DOCTYPE svg PUBLIC "-//W3C//DTD SVG 1.1//EN"
 "http://www.w3.org/Graphics/SVG/1.1/DTD/svg11.dtd">
<!-- Generated by graphviz version 12.2.1 (20241206.2353)
 -->
<!-- Title: JumpPunch_CanStart Pages: 1 -->
<svg width="325pt" height="66pt"
 viewBox="0.00 0.00 325.00 66.00" xmlns="http://www.w3.org/2000/svg" xmlns:xlink="http://www.w3.org/1999/xlink">
<g id="graph0" class="graph" transform="scale(1 1) rotate(0) translate(4 62)">
<title>JumpPunch_CanStart</title>
<!-- Node1 -->
<g id="Node000001" class="node">
<title>Node1</title>
<g id="a_Node000001"><a xlink:title=" ">
<polygon fill="#999999" stroke="#666666" points="112,-39 0,-39 0,-19 112,-19 112,-39"/>
<text text-anchor="middle" x="56" y="-25.5" font-family="Helvetica,sans-Serif" font-size="10.00">JumpPunch_CanStart</text>
</a>
</g>
</g>
<!-- Node2 -->
<g id="Node000002" class="node">
<title>Node2</title>
<g id="a_Node000002"><a xlink:href="character_8c.html#a5ebc6906e36acf7e8a3f4d7fc4333e6b" target="_top" xlink:title=" ">
<polygon fill="white" stroke="#666666" points="317,-58 148,-58 148,-38 317,-38 317,-58"/>
<text text-anchor="middle" x="232.5" y="-44.5" font-family="Helvetica,sans-Serif" font-size="10.00">GetCharacterGameplayComponent</text>
</a>
</g>
</g>
<!-- Node1&#45;&gt;Node2 -->
<g id="edge1_Node000001_Node000002" class="edge">
<title>Node1&#45;&gt;Node2</title>
<g id="a_edge1_Node000001_Node000002"><a xlink:title=" ">
<path fill="none" stroke="#63b8ff" d="M112.21,-35.01C119.97,-35.86 128.12,-36.74 136.36,-37.64"/>
<polygon fill="#63b8ff" stroke="#63b8ff" points="135.81,-41.1 146.13,-38.7 136.57,-34.14 135.81,-41.1"/>
</a>
</g>
</g>
<!-- Node3 -->
<g id="Node000003" class="node">
<title>Node3</title>
<g id="a_Node000003"><a xlink:href="character_8c.html#a442b735141d6315291d3e71ac19807ff" target="_top" xlink:title=" ">
<polygon fill="white" stroke="#666666" points="303.5,-20 161.5,-20 161.5,0 303.5,0 303.5,-20"/>
<text text-anchor="middle" x="232.5" y="-6.5" font-family="Helvetica,sans-Serif" font-size="10.00">GetCharacterGameplayState</text>
</a>
</g>
</g>
<!-- Node1&#45;&gt;Node3 -->
<g id="edge2_Node000001_Node000003" class="edge">
<title>Node1&#45;&gt;Node3</title>
<g id="a_edge2_Node000001_Node000003"><a xlink:title=" ">
<path fill="none" stroke="#63b8ff" d="M112.21,-22.99C124.26,-21.68 137.25,-20.26 150.08,-18.87"/>
<polygon fill="#63b8ff" stroke="#63b8ff" points="150.21,-22.37 159.77,-17.81 149.45,-15.41 150.21,-22.37"/>
</a>
</g>
</g>
</g>
</svg>
