<?xml version="1.0" encoding="UTF-8" standalone="no"?>
<!DOCTYPE svg PUBLIC "-//W3C//DTD SVG 1.1//EN"
 "http://www.w3.org/Graphics/SVG/1.1/DTD/svg11.dtd">
<!-- Generated by graphviz version 12.2.1 (20241206.2353)
 -->
<!-- Title: GameSpawnHadouken Pages: 1 -->
<svg width="419pt" height="28pt"
 viewBox="0.00 0.00 419.25 28.00" xmlns="http://www.w3.org/2000/svg" xmlns:xlink="http://www.w3.org/1999/xlink">
<g id="graph0" class="graph" transform="scale(1 1) rotate(0) translate(4 24)">
<title>GameSpawnHadouken</title>
<!-- Node1 -->
<g id="Node000001" class="node">
<title>Node1</title>
<g id="a_Node000001"><a xlink:title="This callback should be with the character object which it will use to spawn hadouken in the correpso...">
<polygon fill="#999999" stroke="#666666" points="411.25,-20 294.75,-20 294.75,0 411.25,0 411.25,-20"/>
<text text-anchor="middle" x="353" y="-6.5" font-family="Helvetica,sans-Serif" font-size="10.00">GameSpawnHadouken</text>
</a>
</g>
</g>
<!-- Node2 -->
<g id="Node000002" class="node">
<title>Node2</title>
<g id="a_Node000002"><a xlink:href="levelmgr_8c.html#a5f61ddac5c680554f5ca9ad4af57d0fe" target="_top" xlink:title="Loads the level and all required objects/assets.">
<polygon fill="white" stroke="#666666" points="258.75,-20 185,-20 185,0 258.75,0 258.75,-20"/>
<text text-anchor="middle" x="221.88" y="-6.5" font-family="Helvetica,sans-Serif" font-size="10.00">levelMgrLoad</text>
</a>
</g>
</g>
<!-- Node1&#45;&gt;Node2 -->
<g id="edge1_Node000001_Node000002" class="edge">
<title>Node1&#45;&gt;Node2</title>
<g id="a_edge1_Node000001_Node000002"><a xlink:title=" ">
<path fill="none" stroke="#63b8ff" d="M283.2,-10C274.83,-10 266.56,-10 258.95,-10"/>
<polygon fill="#63b8ff" stroke="#63b8ff" points="283.1,-13.5 293.1,-10 283.1,-6.5 283.1,-13.5"/>
</a>
</g>
</g>
<!-- Node3 -->
<g id="Node000003" class="node">
<title>Node3</title>
<g id="a_Node000003"><a xlink:href="game_8c.html#ab30d311d5430e1450c49e0a71da13387" target="_top" xlink:title="Function declarations and typedefs and extern global var declarations.">
<polygon fill="white" stroke="#666666" points="149,-20 90.25,-20 90.25,0 149,0 149,-20"/>
<text text-anchor="middle" x="119.62" y="-6.5" font-family="Helvetica,sans-Serif" font-size="10.00">_gameInit</text>
</a>
</g>
</g>
<!-- Node2&#45;&gt;Node3 -->
<g id="edge2_Node000002_Node000003" class="edge">
<title>Node2&#45;&gt;Node3</title>
<g id="a_edge2_Node000002_Node000003"><a xlink:title=" ">
<path fill="none" stroke="#63b8ff" d="M173.23,-10C165.02,-10 156.72,-10 149.22,-10"/>
<polygon fill="#63b8ff" stroke="#63b8ff" points="173.17,-13.5 183.17,-10 173.17,-6.5 173.17,-13.5"/>
</a>
</g>
</g>
<!-- Node4 -->
<g id="Node000004" class="node">
<title>Node4</title>
<g id="a_Node000004"><a xlink:href="game_8c.html#a661c2abc03926acfaeb93b4ae7db4943" target="_top" xlink:title="Program Entry Point (WinMain). Part of the base game framework.">
<polygon fill="white" stroke="#666666" points="54.25,-20 0,-20 0,0 54.25,0 54.25,-20"/>
<text text-anchor="middle" x="27.12" y="-6.5" font-family="Helvetica,sans-Serif" font-size="10.00">WinMain</text>
</a>
</g>
</g>
<!-- Node3&#45;&gt;Node4 -->
<g id="edge3_Node000003_Node000004" class="edge">
<title>Node3&#45;&gt;Node4</title>
<g id="a_edge3_Node000003_Node000004"><a xlink:title=" ">
<path fill="none" stroke="#63b8ff" d="M78.48,-10C70.44,-10 62.17,-10 54.73,-10"/>
<polygon fill="#63b8ff" stroke="#63b8ff" points="78.48,-13.5 88.48,-10 78.48,-6.5 78.48,-13.5"/>
</a>
</g>
</g>
</g>
</svg>
