<?xml version="1.0" encoding="UTF-8" standalone="no"?>
<!DOCTYPE svg PUBLIC "-//W3C//DTD SVG 1.1//EN"
 "http://www.w3.org/Graphics/SVG/1.1/DTD/svg11.dtd">
<!-- Generated by graphviz version 12.2.1 (20241206.2353)
 -->
<!-- Title: characterDelete Pages: 1 -->
<svg width="218pt" height="66pt"
 viewBox="0.00 0.00 217.75 66.00" xmlns="http://www.w3.org/2000/svg" xmlns:xlink="http://www.w3.org/1999/xlink">
<g id="graph0" class="graph" transform="scale(1 1) rotate(0) translate(4 62)">
<title>characterDelete</title>
<!-- Node1 -->
<g id="Node000001" class="node">
<title>Node1</title>
<g id="a_Node000001"><a xlink:title="Frees up resources from a character object.">
<polygon fill="#999999" stroke="#666666" points="85,-39 0,-39 0,-19 85,-19 85,-39"/>
<text text-anchor="middle" x="42.5" y="-25.5" font-family="Helvetica,sans-Serif" font-size="10.00">characterDelete</text>
</a>
</g>
</g>
<!-- Node2 -->
<g id="Node000002" class="node">
<title>Node2</title>
<g id="a_Node000002"><a xlink:href="impactinfo_8c.html#a1ecd20c21ac20adac4eec99f3fb27114" target="_top" xlink:title=" ">
<polygon fill="white" stroke="#666666" points="209.75,-58 121,-58 121,-38 209.75,-38 209.75,-58"/>
<text text-anchor="middle" x="165.38" y="-44.5" font-family="Helvetica,sans-Serif" font-size="10.00">ImpactInfoDeInit</text>
</a>
</g>
</g>
<!-- Node1&#45;&gt;Node2 -->
<g id="edge1_Node000001_Node000002" class="edge">
<title>Node1&#45;&gt;Node2</title>
<g id="a_edge1_Node000001_Node000002"><a xlink:title=" ">
<path fill="none" stroke="#63b8ff" d="M85.44,-35.59C93.22,-36.82 101.46,-38.11 109.57,-39.38"/>
<polygon fill="#63b8ff" stroke="#63b8ff" points="108.95,-42.83 119.37,-40.93 110.04,-35.92 108.95,-42.83"/>
</a>
</g>
</g>
<!-- Node3 -->
<g id="Node000003" class="node">
<title>Node3</title>
<g id="a_Node000003"><a xlink:href="object_8c.html#a1990d7344bbf3ef06205a6671cf38ffe" target="_top" xlink:title="Deinitialize an object.">
<polygon fill="white" stroke="#666666" points="192.5,-20 138.25,-20 138.25,0 192.5,0 192.5,-20"/>
<text text-anchor="middle" x="165.38" y="-6.5" font-family="Helvetica,sans-Serif" font-size="10.00">objDeinit</text>
</a>
</g>
</g>
<!-- Node1&#45;&gt;Node3 -->
<g id="edge2_Node000001_Node000003" class="edge">
<title>Node1&#45;&gt;Node3</title>
<g id="a_edge2_Node000001_Node000003"><a xlink:title=" ">
<path fill="none" stroke="#63b8ff" d="M85.44,-22.41C98.94,-20.29 113.8,-17.95 126.96,-15.88"/>
<polygon fill="#63b8ff" stroke="#63b8ff" points="127.17,-19.39 136.5,-14.38 126.08,-12.48 127.17,-19.39"/>
</a>
</g>
</g>
</g>
</svg>
