<?xml version="1.0" encoding="UTF-8" standalone="no"?>
<!DOCTYPE svg PUBLIC "-//W3C//DTD SVG 1.1//EN"
 "http://www.w3.org/Graphics/SVG/1.1/DTD/svg11.dtd">
<!-- Generated by graphviz version 12.2.1 (20241206.2353)
 -->
<!-- Title: _characterOnCollisionEnter Pages: 1 -->
<svg width="527pt" height="142pt"
 viewBox="0.00 0.00 527.00 142.00" xmlns="http://www.w3.org/2000/svg" xmlns:xlink="http://www.w3.org/1999/xlink">
<g id="graph0" class="graph" transform="scale(1 1) rotate(0) translate(4 138)">
<title>_characterOnCollisionEnter</title>
<!-- Node1 -->
<g id="Node000001" class="node">
<title>Node1</title>
<g id="a_Node000001"><a xlink:title=" ">
<polygon fill="#999999" stroke="#666666" points="135.25,-77 0,-77 0,-57 135.25,-57 135.25,-77"/>
<text text-anchor="middle" x="67.62" y="-63.5" font-family="Helvetica,sans-Serif" font-size="10.00">_characterOnCollisionEnter</text>
</a>
</g>
</g>
<!-- Node2 -->
<g id="Node000002" class="node">
<title>Node2</title>
<g id="a_Node000002"><a xlink:href="impactinfo_8c.html#ad26cbbc4981aee9384d547879b9ab4b4" target="_top" xlink:title=" ">
<polygon fill="white" stroke="#666666" points="285.12,-134 207.62,-134 207.62,-114 285.12,-114 285.12,-134"/>
<text text-anchor="middle" x="246.38" y="-120.5" font-family="Helvetica,sans-Serif" font-size="10.00">ImpactInfoSet</text>
</a>
</g>
</g>
<!-- Node1&#45;&gt;Node2 -->
<g id="edge1_Node000001_Node000002" class="edge">
<title>Node1&#45;&gt;Node2</title>
<g id="a_edge1_Node000001_Node000002"><a xlink:title=" ">
<path fill="none" stroke="#63b8ff" d="M94.52,-77.44C115.12,-85.53 144.77,-96.73 171.25,-105 179.36,-107.53 188.05,-109.99 196.51,-112.24"/>
<polygon fill="#63b8ff" stroke="#63b8ff" points="195.43,-115.58 205.99,-114.7 197.19,-108.8 195.43,-115.58"/>
</a>
</g>
</g>
<!-- Node3 -->
<g id="Node000003" class="node">
<title>Node3</title>
<g id="a_Node000003"><a xlink:href="impactinfo_8c.html#a2e108a70330bd8b833ff6a13b592af39" target="_top" xlink:title="Has the value of the impact value changed.">
<polygon fill="white" stroke="#666666" points="292.25,-96 200.5,-96 200.5,-76 292.25,-76 292.25,-96"/>
<text text-anchor="middle" x="246.38" y="-82.5" font-family="Helvetica,sans-Serif" font-size="10.00">IsImpactInfoDirty</text>
</a>
</g>
</g>
<!-- Node1&#45;&gt;Node3 -->
<g id="edge2_Node000001_Node000003" class="edge">
<title>Node1&#45;&gt;Node3</title>
<g id="a_edge2_Node000001_Node000003"><a xlink:title=" ">
<path fill="none" stroke="#63b8ff" d="M135.7,-74.21C153.16,-76.09 171.79,-78.09 188.65,-79.9"/>
<polygon fill="#63b8ff" stroke="#63b8ff" points="188.19,-83.37 198.51,-80.96 188.94,-76.41 188.19,-83.37"/>
</a>
</g>
</g>
<!-- Node4 -->
<g id="Node000004" class="node">
<title>Node4</title>
<g id="a_Node000004"><a xlink:href="character_8c.html#acc4daaf5b6bd9f9e1f65d66e1adc8709" target="_top" xlink:title=" ">
<polygon fill="white" stroke="#666666" points="299,-58 193.75,-58 193.75,-38 299,-38 299,-58"/>
<text text-anchor="middle" x="246.38" y="-44.5" font-family="Helvetica,sans-Serif" font-size="10.00">IsImpactPointHitting</text>
</a>
</g>
</g>
<!-- Node1&#45;&gt;Node4 -->
<g id="edge3_Node000001_Node000004" class="edge">
<title>Node1&#45;&gt;Node4</title>
<g id="a_edge3_Node000001_Node000004"><a xlink:title=" ">
<path fill="none" stroke="#63b8ff" d="M135.7,-59.79C150.95,-58.15 167.1,-56.41 182.19,-54.79"/>
<polygon fill="#63b8ff" stroke="#63b8ff" points="182.41,-58.29 191.98,-53.74 181.66,-51.33 182.41,-58.29"/>
</a>
</g>
</g>
<!-- Node5 -->
<g id="Node000005" class="node">
<title>Node5</title>
<g id="a_Node000005"><a xlink:href="character_8c.html#ad1231b0261d85e80fb253119d910d23b" target="_top" xlink:title=" ">
<polygon fill="white" stroke="#666666" points="321.5,-20 171.25,-20 171.25,0 321.5,0 321.5,-20"/>
<text text-anchor="middle" x="246.38" y="-6.5" font-family="Helvetica,sans-Serif" font-size="10.00">IsImpactPointInDefenseRange</text>
</a>
</g>
</g>
<!-- Node1&#45;&gt;Node5 -->
<g id="edge4_Node000001_Node000005" class="edge">
<title>Node1&#45;&gt;Node5</title>
<g id="a_edge4_Node000001_Node000005"><a xlink:title=" ">
<path fill="none" stroke="#63b8ff" d="M94.52,-56.56C115.12,-48.47 144.77,-37.27 171.25,-29 177.51,-27.05 184.1,-25.14 190.68,-23.34"/>
<polygon fill="#63b8ff" stroke="#63b8ff" points="191.43,-26.76 200.19,-20.79 189.63,-19.99 191.43,-26.76"/>
</a>
</g>
</g>
<!-- Node6 -->
<g id="Node000006" class="node">
<title>Node6</title>
<g id="a_Node000006"><a xlink:href="character_8c.html#ab2ca6ecdf49576e3b2cc7b7250d5b141" target="_top" xlink:title=" ">
<polygon fill="white" stroke="#666666" points="519,-20 357.5,-20 357.5,0 519,0 519,-20"/>
<text text-anchor="middle" x="438.25" y="-6.5" font-family="Helvetica,sans-Serif" font-size="10.00">GetCharacterDefenseComponent</text>
</a>
</g>
</g>
<!-- Node5&#45;&gt;Node6 -->
<g id="edge5_Node000005_Node000006" class="edge">
<title>Node5&#45;&gt;Node6</title>
<g id="a_edge5_Node000005_Node000006"><a xlink:title=" ">
<path fill="none" stroke="#63b8ff" d="M321.87,-10C329.71,-10 337.75,-10 345.75,-10"/>
<polygon fill="#63b8ff" stroke="#63b8ff" points="345.5,-13.5 355.5,-10 345.5,-6.5 345.5,-13.5"/>
</a>
</g>
</g>
</g>
</svg>
