<?xml version="1.0" encoding="UTF-8" standalone="no"?>
<!DOCTYPE svg PUBLIC "-//W3C//DTD SVG 1.1//EN"
 "http://www.w3.org/Graphics/SVG/1.1/DTD/svg11.dtd">
<!-- Generated by graphviz version 12.2.1 (20241206.2353)
 -->
<!-- Title: Game/include/collider.h Pages: 1 -->
<svg width="146pt" height="84pt"
 viewBox="0.00 0.00 145.50 84.00" xmlns="http://www.w3.org/2000/svg" xmlns:xlink="http://www.w3.org/1999/xlink">
<g id="graph0" class="graph" transform="scale(1 1) rotate(0) translate(4 80)">
<title>Game/include/collider.h</title>
<!-- Node1 -->
<g id="Node000001" class="node">
<title>Node1</title>
<g id="a_Node000001"><a xlink:title=" ">
<polygon fill="#999999" stroke="#666666" points="133.75,-76 15.75,-76 15.75,-56 133.75,-56 133.75,-76"/>
<text text-anchor="middle" x="74.75" y="-62.5" font-family="Helvetica,sans-Serif" font-size="10.00">Game/include/collider.h</text>
</a>
</g>
</g>
<!-- Node2 -->
<g id="Node000002" class="node">
<title>Node2</title>
<g id="a_Node000002"><a xlink:title=" ">
<polygon fill="#e0e0e0" stroke="#999999" points="71.5,-20 0,-20 0,0 71.5,0 71.5,-20"/>
<text text-anchor="middle" x="35.75" y="-6.5" font-family="Helvetica,sans-Serif" font-size="10.00">baseTypes.h</text>
</a>
</g>
</g>
<!-- Node1&#45;&gt;Node2 -->
<g id="edge1_Node000001_Node000002" class="edge">
<title>Node1&#45;&gt;Node2</title>
<g id="a_edge1_Node000001_Node000002"><a xlink:title=" ">
<path fill="none" stroke="#63b8ff" d="M67.96,-55.59C62.76,-48.39 55.42,-38.23 49.06,-29.43"/>
<polygon fill="#63b8ff" stroke="#63b8ff" points="52.04,-27.58 43.35,-21.53 46.37,-31.68 52.04,-27.58"/>
</a>
</g>
</g>
<!-- Node3 -->
<g id="Node000003" class="node">
<title>Node3</title>
<g id="a_Node000003"><a xlink:title=" ">
<polygon fill="#e0e0e0" stroke="#999999" points="137.5,-20 90,-20 90,0 137.5,0 137.5,-20"/>
<text text-anchor="middle" x="113.75" y="-6.5" font-family="Helvetica,sans-Serif" font-size="10.00">stdlib.h</text>
</a>
</g>
</g>
<!-- Node1&#45;&gt;Node3 -->
<g id="edge2_Node000001_Node000003" class="edge">
<title>Node1&#45;&gt;Node3</title>
<g id="a_edge2_Node000001_Node000003"><a xlink:title=" ">
<path fill="none" stroke="#63b8ff" d="M81.54,-55.59C86.74,-48.39 94.08,-38.23 100.44,-29.43"/>
<polygon fill="#63b8ff" stroke="#63b8ff" points="103.13,-31.68 106.15,-21.53 97.46,-27.58 103.13,-31.68"/>
</a>
</g>
</g>
</g>
</svg>
