<?xml version="1.0" encoding="UTF-8" standalone="no"?>
<!DOCTYPE svg PUBLIC "-//W3C//DTD SVG 1.1//EN"
 "http://www.w3.org/Graphics/SVG/1.1/DTD/svg11.dtd">
<!-- Generated by graphviz version 12.2.1 (20241206.2353)
 -->
<!-- Title: WinMain Pages: 1 -->
<svg width="445pt" height="978pt"
 viewBox="0.00 0.00 444.75 978.00" xmlns="http://www.w3.org/2000/svg" xmlns:xlink="http://www.w3.org/1999/xlink">
<g id="graph0" class="graph" transform="scale(1 1) rotate(0) translate(4 974)">
<title>WinMain</title>
<!-- Node1 -->
<g id="Node000001" class="node">
<title>Node1</title>
<g id="a_Node000001"><a xlink:title="Program Entry Point (WinMain). Part of the base game framework.">
<polygon fill="#999999" stroke="#666666" points="54.25,-305 0,-305 0,-285 54.25,-285 54.25,-305"/>
<text text-anchor="middle" x="27.12" y="-291.5" font-family="Helvetica,sans-Serif" font-size="10.00">WinMain</text>
</a>
</g>
</g>
<!-- Node2 -->
<g id="Node000002" class="node">
<title>Node2</title>
<g id="a_Node000002"><a xlink:href="game_8c.html#a2f1d3262d209f17a7eba4b214d4903e1" target="_top" xlink:title=" ">
<polygon fill="white" stroke="#666666" points="168.88,-761 100.38,-761 100.38,-741 168.88,-741 168.88,-761"/>
<text text-anchor="middle" x="134.62" y="-747.5" font-family="Helvetica,sans-Serif" font-size="10.00">_gameDraw</text>
</a>
</g>
</g>
<!-- Node1&#45;&gt;Node2 -->
<g id="edge1_Node000001_Node000002" class="edge">
<title>Node1&#45;&gt;Node2</title>
<g id="a_edge1_Node000001_Node000002"><a xlink:title=" ">
<path fill="none" stroke="#63b8ff" d="M30.53,-305.38C43.98,-363.52 110.02,-648.98 128.7,-729.7"/>
<polygon fill="#63b8ff" stroke="#63b8ff" points="125.27,-730.4 130.93,-739.36 132.09,-728.83 125.27,-730.4"/>
</a>
</g>
</g>
<!-- Node18 -->
<g id="Node000018" class="node">
<title>Node18</title>
<g id="a_Node000018"><a xlink:href="game_8c.html#ab30d311d5430e1450c49e0a71da13387" target="_top" xlink:title="Function declarations and typedefs and extern global var declarations.">
<polygon fill="white" stroke="#666666" points="164,-191 105.25,-191 105.25,-171 164,-171 164,-191"/>
<text text-anchor="middle" x="134.62" y="-177.5" font-family="Helvetica,sans-Serif" font-size="10.00">_gameInit</text>
</a>
</g>
</g>
<!-- Node1&#45;&gt;Node18 -->
<g id="edge13_Node000001_Node000018" class="edge">
<title>Node1&#45;&gt;Node18</title>
<g id="a_edge13_Node000001_Node000018"><a xlink:title=" ">
<path fill="none" stroke="#63b8ff" d="M37.49,-284.88C55.2,-265.75 93.83,-224 116.36,-199.65"/>
<polygon fill="#63b8ff" stroke="#63b8ff" points="118.88,-202.09 123.1,-192.37 113.74,-197.33 118.88,-202.09"/>
</a>
</g>
</g>
<!-- Node241 -->
<g id="Node000241" class="node">
<title>Node241</title>
<g id="a_Node000241"><a xlink:href="game_8c.html#a4d3157f85fc146303cabedf895a17df6" target="_top" xlink:title="Cleanup the game and free up any allocated resources. Part of the base game framework.">
<polygon fill="white" stroke="#666666" points="179,-77 90.25,-77 90.25,-57 179,-57 179,-77"/>
<text text-anchor="middle" x="134.62" y="-63.5" font-family="Helvetica,sans-Serif" font-size="10.00">_gameShutdown</text>
</a>
</g>
</g>
<!-- Node1&#45;&gt;Node241 -->
<g id="edge17_Node000001_Node000241" class="edge">
<title>Node1&#45;&gt;Node241</title>
<g id="a_edge17_Node000001_Node000241"><a xlink:title=" ">
<path fill="none" stroke="#63b8ff" d="M32.93,-284.61C49.17,-249.52 102.18,-134.96 124.05,-87.69"/>
<polygon fill="#63b8ff" stroke="#63b8ff" points="127.13,-89.37 128.15,-78.82 120.78,-86.43 127.13,-89.37"/>
</a>
</g>
</g>
<!-- Node253 -->
<g id="Node000253" class="node">
<title>Node253</title>
<g id="a_Node000253"><a xlink:href="game_8c.html#a4c776f564425d03bdd1026bef085f589" target="_top" xlink:title="Perform updates for all game objects, for the elapsed duration.">
<polygon fill="#fff0f0" stroke="red" points="173,-400 96.25,-400 96.25,-380 173,-380 173,-400"/>
<text text-anchor="middle" x="134.62" y="-386.5" font-family="Helvetica,sans-Serif" font-size="10.00">_gameUpdate</text>
</a>
</g>
</g>
<!-- Node1&#45;&gt;Node253 -->
<g id="edge21_Node000001_Node000253" class="edge">
<title>Node1&#45;&gt;Node253</title>
<g id="a_edge21_Node000001_Node000253"><a xlink:title=" ">
<path fill="none" stroke="#63b8ff" d="M39.42,-305.17C57.17,-321.15 91.85,-352.38 113.82,-372.16"/>
<polygon fill="#63b8ff" stroke="#63b8ff" points="111.2,-374.51 120.97,-378.61 115.88,-369.31 111.2,-374.51"/>
</a>
</g>
</g>
<!-- Node3 -->
<g id="Node000003" class="node">
<title>Node3</title>
<g id="a_Node000003"><a xlink:href="game_8c.html#a59531f70a55ea71bf9811caca5759c5a" target="_top" xlink:title="Draw everything to the screen for current frame.">
<polygon fill="white" stroke="#666666" points="308.25,-970 222.5,-970 222.5,-950 308.25,-950 308.25,-970"/>
<text text-anchor="middle" x="265.38" y="-956.5" font-family="Helvetica,sans-Serif" font-size="10.00">_healthBarDraw</text>
</a>
</g>
</g>
<!-- Node2&#45;&gt;Node3 -->
<g id="edge2_Node000002_Node000003" class="edge">
<title>Node2&#45;&gt;Node3</title>
<g id="a_edge2_Node000002_Node000003"><a xlink:title=" ">
<path fill="none" stroke="#63b8ff" d="M137.04,-761.23C141.88,-792.54 160.65,-888.18 215,-941 215.89,-941.86 216.82,-942.69 217.79,-943.48"/>
<polygon fill="#63b8ff" stroke="#63b8ff" points="215.74,-946.32 226.04,-948.81 219.54,-940.44 215.74,-946.32"/>
</a>
</g>
</g>
<!-- Node4 -->
<g id="Node000004" class="node">
<title>Node4</title>
<g id="a_Node000004"><a xlink:href="backgroundmanager_8c.html#a36e194bdd58e8ecf436456b19ecae8f1" target="_top" xlink:title="Render the background.">
<polygon fill="white" stroke="#666666" points="310.12,-932 220.62,-932 220.62,-912 310.12,-912 310.12,-932"/>
<text text-anchor="middle" x="265.38" y="-918.5" font-family="Helvetica,sans-Serif" font-size="10.00">backgroundDraw</text>
</a>
</g>
</g>
<!-- Node2&#45;&gt;Node4 -->
<g id="edge3_Node000002_Node000004" class="edge">
<title>Node2&#45;&gt;Node4</title>
<g id="a_edge3_Node000002_Node000004"><a xlink:title=" ">
<path fill="none" stroke="#63b8ff" d="M138.29,-761.46C145.73,-788.63 169.24,-862.17 215,-903 216.08,-903.96 217.21,-904.88 218.39,-905.75"/>
<polygon fill="#63b8ff" stroke="#63b8ff" points="216.42,-908.65 226.79,-910.82 220.03,-902.65 216.42,-908.65"/>
</a>
</g>
</g>
<!-- Node5 -->
<g id="Node000005" class="node">
<title>Node5</title>
<g id="a_Node000005"><a xlink:href="levelmgr_8c.html#af6196660decc7b20e3592f2af6e96c74" target="_top" xlink:title="Draw timer on screen.">
<polygon fill="#fff0f0" stroke="red" points="296.25,-894 234.5,-894 234.5,-874 296.25,-874 296.25,-894"/>
<text text-anchor="middle" x="265.38" y="-880.5" font-family="Helvetica,sans-Serif" font-size="10.00">drawTimer</text>
</a>
</g>
</g>
<!-- Node2&#45;&gt;Node5 -->
<g id="edge4_Node000002_Node000005" class="edge">
<title>Node2&#45;&gt;Node5</title>
<g id="a_edge4_Node000002_Node000005"><a xlink:title=" ">
<path fill="none" stroke="#63b8ff" d="M140.22,-761.37C150.49,-783.45 177.42,-835.54 215,-865 217.73,-867.14 220.73,-869.06 223.86,-870.79"/>
<polygon fill="#63b8ff" stroke="#63b8ff" points="222.23,-873.89 232.77,-874.98 225.21,-867.55 222.23,-873.89"/>
</a>
</g>
</g>
<!-- Node8 -->
<g id="Node000008" class="node">
<title>Node8</title>
<g id="a_Node000008"><a xlink:href="backgroundmanager_8c.html#a60ecba4ca153963b988c8d7b510c1cb9" target="_top" xlink:title="Displaying images at the end declaring who the winner is. So this displays 2 images and a text....">
<polygon fill="white" stroke="#666666" points="309,-856 221.75,-856 221.75,-836 309,-836 309,-856"/>
<text text-anchor="middle" x="265.38" y="-842.5" font-family="Helvetica,sans-Serif" font-size="10.00">endScreenShow</text>
</a>
</g>
</g>
<!-- Node2&#45;&gt;Node8 -->
<g id="edge5_Node000002_Node000008" class="edge">
<title>Node2&#45;&gt;Node8</title>
<g id="a_edge5_Node000002_Node000008"><a xlink:title=" ">
<path fill="none" stroke="#63b8ff" d="M144.12,-761.45C157.63,-777.49 185.52,-808.29 215,-827 217,-828.27 219.1,-829.47 221.25,-830.62"/>
<polygon fill="#63b8ff" stroke="#63b8ff" points="219.71,-833.76 230.24,-834.86 222.69,-827.43 219.71,-833.76"/>
</a>
</g>
</g>
<!-- Node9 -->
<g id="Node000009" class="node">
<title>Node9</title>
<g id="a_Node000009"><a xlink:href="levelmgr_8c.html#a1ca4f34f85db51a58aca89be9c5b0de4" target="_top" xlink:title=" ">
<polygon fill="white" stroke="#666666" points="311.62,-818 219.12,-818 219.12,-798 311.62,-798 311.62,-818"/>
<text text-anchor="middle" x="265.38" y="-804.5" font-family="Helvetica,sans-Serif" font-size="10.00">GetCurrentRound</text>
</a>
</g>
</g>
<!-- Node2&#45;&gt;Node9 -->
<g id="edge6_Node000002_Node000009" class="edge">
<title>Node2&#45;&gt;Node9</title>
<g id="a_edge6_Node000002_Node000009"><a xlink:title=" ">
<path fill="none" stroke="#63b8ff" d="M159.24,-761.45C179.2,-770.29 208.05,-783.06 230.48,-792.99"/>
<polygon fill="#63b8ff" stroke="#63b8ff" points="228.97,-796.15 239.53,-797 231.8,-789.75 228.97,-796.15"/>
</a>
</g>
</g>
<!-- Node10 -->
<g id="Node000010" class="node">
<title>Node10</title>
<g id="a_Node000010"><a xlink:href="levelmgr_8c.html#aab0d174dc963ec0c1acbbe4fdba13160" target="_top" xlink:title="Timer for the game exit after which game loads again from start screen.">
<polygon fill="white" stroke="#666666" points="302.25,-590 228.5,-590 228.5,-570 302.25,-570 302.25,-590"/>
<text text-anchor="middle" x="265.38" y="-576.5" font-family="Helvetica,sans-Serif" font-size="10.00">GetExitTimer</text>
</a>
</g>
</g>
<!-- Node2&#45;&gt;Node10 -->
<g id="edge7_Node000002_Node000010" class="edge">
<title>Node2&#45;&gt;Node10</title>
<g id="a_edge7_Node000002_Node000010"><a xlink:title=" ">
<path fill="none" stroke="#63b8ff" d="M138.29,-740.54C145.73,-713.37 169.24,-639.83 215,-599 216.08,-598.04 217.21,-597.12 218.39,-596.25"/>
<polygon fill="#63b8ff" stroke="#63b8ff" points="220.03,-599.35 226.79,-591.18 216.42,-593.35 220.03,-599.35"/>
</a>
</g>
</g>
<!-- Node11 -->
<g id="Node000011" class="node">
<title>Node11</title>
<g id="a_Node000011"><a xlink:href="levelmgr_8c.html#a01243945097b852be2b045a1bfb85704" target="_top" xlink:title=" ">
<polygon fill="white" stroke="#666666" points="436.75,-552 351.75,-552 351.75,-532 436.75,-532 436.75,-552"/>
<text text-anchor="middle" x="394.25" y="-538.5" font-family="Helvetica,sans-Serif" font-size="10.00">GetRoundTimer</text>
</a>
</g>
</g>
<!-- Node2&#45;&gt;Node11 -->
<g id="edge8_Node000002_Node000011" class="edge">
<title>Node2&#45;&gt;Node11</title>
<g id="a_edge8_Node000002_Node000011"><a xlink:title=" ">
<path fill="none" stroke="#63b8ff" d="M168.86,-761.46C207.76,-771.51 272.37,-781.18 315.75,-751 378.06,-707.65 390.38,-608.04 392.74,-563.83"/>
<polygon fill="#63b8ff" stroke="#63b8ff" points="396.23,-564.1 393.13,-553.97 389.24,-563.83 396.23,-564.1"/>
</a>
</g>
</g>
<!-- Node12 -->
<g id="Node000012" class="node">
<title>Node12</title>
<g id="a_Node000012"><a xlink:href="objmgr_8c.html#aa80d7aa4f928bcd719a22f487fa546b5" target="_top" xlink:title="Draws all registered objects.">
<polygon fill="#fff0f0" stroke="red" points="299.62,-742 231.12,-742 231.12,-722 299.62,-722 299.62,-742"/>
<text text-anchor="middle" x="265.38" y="-728.5" font-family="Helvetica,sans-Serif" font-size="10.00">objMgrDraw</text>
</a>
</g>
</g>
<!-- Node2&#45;&gt;Node12 -->
<g id="edge9_Node000002_Node000012" class="edge">
<title>Node2&#45;&gt;Node12</title>
<g id="a_edge9_Node000002_Node000012"><a xlink:title=" ">
<path fill="none" stroke="#63b8ff" d="M169.12,-746.06C184.61,-743.77 203.24,-741.02 219.9,-738.56"/>
<polygon fill="#63b8ff" stroke="#63b8ff" points="220.17,-742.06 229.55,-737.14 219.15,-735.14 220.17,-742.06"/>
</a>
</g>
</g>
<!-- Node14 -->
<g id="Node000014" class="node">
<title>Node14</title>
<g id="a_Node000014"><a xlink:href="backgroundmanager_8c.html#a758accc7d3ea0b0ad26b287c0b879961" target="_top" xlink:title="The round number is rendered &#45; like round0, round1...round75...roundn.">
<polygon fill="#fff0f0" stroke="red" points="315.75,-704 215,-704 215,-684 315.75,-684 315.75,-704"/>
<text text-anchor="middle" x="265.38" y="-690.5" font-family="Helvetica,sans-Serif" font-size="10.00">RoundDisplayDraw</text>
</a>
</g>
</g>
<!-- Node2&#45;&gt;Node14 -->
<g id="edge10_Node000002_Node000014" class="edge">
<title>Node2&#45;&gt;Node14</title>
<g id="a_edge10_Node000002_Node000014"><a xlink:title=" ">
<path fill="none" stroke="#63b8ff" d="M156.31,-740.54C172.21,-732.64 194.8,-721.71 215,-713 218.37,-711.55 221.9,-710.08 225.45,-708.65"/>
<polygon fill="#63b8ff" stroke="#63b8ff" points="226.6,-711.96 234.61,-705.03 224.03,-705.45 226.6,-711.96"/>
</a>
</g>
</g>
<!-- Node15 -->
<g id="Node000015" class="node">
<title>Node15</title>
<g id="a_Node000015"><a xlink:href="backgroundmanager_8c.html#a7e02ecb19caa5a10703b86f7832200a3" target="_top" xlink:title="draw function for the start screen. This is drawn as the game starts from where the user can press sp...">
<polygon fill="white" stroke="#666666" points="310.88,-666 219.88,-666 219.88,-646 310.88,-646 310.88,-666"/>
<text text-anchor="middle" x="265.38" y="-652.5" font-family="Helvetica,sans-Serif" font-size="10.00">StartScreenDraw</text>
</a>
</g>
</g>
<!-- Node2&#45;&gt;Node15 -->
<g id="edge11_Node000002_Node000015" class="edge">
<title>Node2&#45;&gt;Node15</title>
<g id="a_edge11_Node000002_Node000015"><a xlink:title=" ">
<path fill="none" stroke="#63b8ff" d="M144.12,-740.55C157.63,-724.51 185.52,-693.71 215,-675 217,-673.73 219.1,-672.53 221.25,-671.38"/>
<polygon fill="#63b8ff" stroke="#63b8ff" points="222.69,-674.57 230.24,-667.14 219.71,-668.24 222.69,-674.57"/>
</a>
</g>
</g>
<!-- Node16 -->
<g id="Node000016" class="node">
<title>Node16</title>
<g id="a_Node000016"><a xlink:href="levelmgr_8c.html#a21bd7602e611af7b25b73b86014aa90a" target="_top" xlink:title="Who won whats their name?">
<polygon fill="#fff0f0" stroke="red" points="314.25,-628 216.5,-628 216.5,-608 314.25,-608 314.25,-628"/>
<text text-anchor="middle" x="265.38" y="-614.5" font-family="Helvetica,sans-Serif" font-size="10.00">TryGetVictorName</text>
</a>
</g>
</g>
<!-- Node2&#45;&gt;Node16 -->
<g id="edge12_Node000002_Node000016" class="edge">
<title>Node2&#45;&gt;Node16</title>
<g id="a_edge12_Node000002_Node000016"><a xlink:title=" ">
<path fill="none" stroke="#63b8ff" d="M140.22,-740.63C150.49,-718.55 177.42,-666.46 215,-637 216.33,-635.96 217.73,-634.96 219.17,-634.02"/>
<polygon fill="#63b8ff" stroke="#63b8ff" points="220.83,-637.11 227.91,-629.23 217.46,-630.97 220.83,-637.11"/>
</a>
</g>
</g>
<!-- Node19 -->
<g id="Node000019" class="node">
<title>Node19</title>
<g id="a_Node000019"><a xlink:href="levelmgr_8c.html#ab4f5749053d79a06bd2a8770f5726aef" target="_top" xlink:title="Initialize the level manager.">
<polygon fill="#fff0f0" stroke="red" points="298.5,-210 232.25,-210 232.25,-190 298.5,-190 298.5,-210"/>
<text text-anchor="middle" x="265.38" y="-196.5" font-family="Helvetica,sans-Serif" font-size="10.00">levelMgrInit</text>
</a>
</g>
</g>
<!-- Node18&#45;&gt;Node19 -->
<g id="edge14_Node000018_Node000019" class="edge">
<title>Node18&#45;&gt;Node19</title>
<g id="a_edge14_Node000018_Node000019"><a xlink:title=" ">
<path fill="none" stroke="#63b8ff" d="M164.2,-185.22C180.76,-187.66 201.97,-190.79 220.59,-193.54"/>
<polygon fill="#63b8ff" stroke="#63b8ff" points="219.9,-196.97 230.3,-194.97 220.92,-190.05 219.9,-196.97"/>
</a>
</g>
</g>
<!-- Node33 -->
<g id="Node000033" class="node">
<title>Node33</title>
<g id="a_Node000033"><a xlink:href="levelmgr_8c.html#a5f61ddac5c680554f5ca9ad4af57d0fe" target="_top" xlink:title="Loads the level and all required objects/assets.">
<polygon fill="#fff0f0" stroke="red" points="302.25,-172 228.5,-172 228.5,-152 302.25,-152 302.25,-172"/>
<text text-anchor="middle" x="265.38" y="-158.5" font-family="Helvetica,sans-Serif" font-size="10.00">levelMgrLoad</text>
</a>
</g>
</g>
<!-- Node18&#45;&gt;Node33 -->
<g id="edge15_Node000018_Node000033" class="edge">
<title>Node18&#45;&gt;Node33</title>
<g id="a_edge15_Node000018_Node000033"><a xlink:title=" ">
<path fill="none" stroke="#63b8ff" d="M164.2,-176.78C179.63,-174.51 199.1,-171.63 216.75,-169.03"/>
<polygon fill="#63b8ff" stroke="#63b8ff" points="217.16,-172.51 226.54,-167.58 216.13,-165.58 217.16,-172.51"/>
</a>
</g>
</g>
<!-- Node237 -->
<g id="Node000237" class="node">
<title>Node237</title>
<g id="a_Node000237"><a xlink:href="objmgr_8c.html#ab526120d8da215d02f519edf8313b7b8" target="_top" xlink:title="Initialize the object manager.">
<polygon fill="#fff0f0" stroke="red" points="294.75,-134 236,-134 236,-114 294.75,-114 294.75,-134"/>
<text text-anchor="middle" x="265.38" y="-120.5" font-family="Helvetica,sans-Serif" font-size="10.00">objMgrInit</text>
</a>
</g>
</g>
<!-- Node18&#45;&gt;Node237 -->
<g id="edge16_Node000018_Node000237" class="edge">
<title>Node18&#45;&gt;Node237</title>
<g id="a_edge16_Node000018_Node000237"><a xlink:title=" ">
<path fill="none" stroke="#63b8ff" d="M156.31,-170.54C172.21,-162.64 194.8,-151.71 215,-143 218.37,-141.55 221.9,-140.08 225.45,-138.65"/>
<polygon fill="#63b8ff" stroke="#63b8ff" points="226.6,-141.96 234.61,-135.03 224.03,-135.45 226.6,-141.96"/>
</a>
</g>
</g>
<!-- Node242 -->
<g id="Node000242" class="node">
<title>Node242</title>
<g id="a_Node000242"><a xlink:href="levelmgr_8c.html#a30e91f13cc312dd1390228051d5b2c0f" target="_top" xlink:title="Shutdown the level manager.">
<polygon fill="white" stroke="#666666" points="313.5,-96 217.25,-96 217.25,-76 313.5,-76 313.5,-96"/>
<text text-anchor="middle" x="265.38" y="-82.5" font-family="Helvetica,sans-Serif" font-size="10.00">levelMgrShutdown</text>
</a>
</g>
</g>
<!-- Node241&#45;&gt;Node242 -->
<g id="edge18_Node000241_Node000242" class="edge">
<title>Node241&#45;&gt;Node242</title>
<g id="a_edge18_Node000241_Node000242"><a xlink:title=" ">
<path fill="none" stroke="#63b8ff" d="M179.21,-73.43C187.73,-74.69 196.79,-76.03 205.7,-77.34"/>
<polygon fill="#63b8ff" stroke="#63b8ff" points="204.95,-80.77 215.36,-78.77 205.98,-73.84 204.95,-80.77"/>
</a>
</g>
</g>
<!-- Node243 -->
<g id="Node000243" class="node">
<title>Node243</title>
<g id="a_Node000243"><a xlink:href="levelmgr_8c.html#acb6a2482af92cd421e3a66922ae99076" target="_top" xlink:title="Unloads the level and frees up any assets associated.">
<polygon fill="#fff0f0" stroke="red" points="307.12,-58 223.62,-58 223.62,-38 307.12,-38 307.12,-58"/>
<text text-anchor="middle" x="265.38" y="-44.5" font-family="Helvetica,sans-Serif" font-size="10.00">levelMgrUnload</text>
</a>
</g>
</g>
<!-- Node241&#45;&gt;Node243 -->
<g id="edge19_Node000241_Node000243" class="edge">
<title>Node241&#45;&gt;Node243</title>
<g id="a_edge19_Node000241_Node000243"><a xlink:title=" ">
<path fill="none" stroke="#63b8ff" d="M179.21,-60.57C189.83,-59 201.28,-57.31 212.25,-55.69"/>
<polygon fill="#63b8ff" stroke="#63b8ff" points="212.56,-59.18 221.94,-54.26 211.54,-52.26 212.56,-59.18"/>
</a>
</g>
</g>
<!-- Node251 -->
<g id="Node000251" class="node">
<title>Node251</title>
<g id="a_Node000251"><a xlink:href="objmgr_8c.html#ace0dfc7c1b1b970cf7dd3655a6b05075" target="_top" xlink:title="Shutdown the object manager.">
<polygon fill="#fff0f0" stroke="red" points="309.75,-20 221,-20 221,0 309.75,0 309.75,-20"/>
<text text-anchor="middle" x="265.38" y="-6.5" font-family="Helvetica,sans-Serif" font-size="10.00">objMgrShutdown</text>
</a>
</g>
</g>
<!-- Node241&#45;&gt;Node251 -->
<g id="edge20_Node000241_Node000251" class="edge">
<title>Node241&#45;&gt;Node251</title>
<g id="a_edge20_Node000241_Node000251"><a xlink:title=" ">
<path fill="none" stroke="#63b8ff" d="M156.31,-56.54C172.21,-48.64 194.8,-37.71 215,-29 218.37,-27.55 221.9,-26.08 225.45,-24.65"/>
<polygon fill="#63b8ff" stroke="#63b8ff" points="226.6,-27.96 234.61,-21.03 224.03,-21.45 226.6,-27.96"/>
</a>
</g>
</g>
<!-- Node253&#45;&gt;Node10 -->
<g id="edge22_Node000253_Node000010" class="edge">
<title>Node253&#45;&gt;Node10</title>
<g id="a_edge22_Node000253_Node000010"><a xlink:title=" ">
<path fill="none" stroke="#63b8ff" d="M138.01,-400.35C145.04,-428.74 168.17,-508.87 215,-556 217.96,-558.98 221.37,-561.65 224.98,-564.02"/>
<polygon fill="#63b8ff" stroke="#63b8ff" points="223.1,-566.98 233.53,-568.87 226.56,-560.89 223.1,-566.98"/>
</a>
</g>
</g>
<!-- Node253&#45;&gt;Node11 -->
<g id="edge23_Node000253_Node000011" class="edge">
<title>Node253&#45;&gt;Node11</title>
<g id="a_edge23_Node000253_Node000011"><a xlink:title=" ">
<path fill="none" stroke="#63b8ff" d="M138.29,-400.19C145.6,-425.87 168.57,-493.28 215,-523 252.05,-546.72 302.54,-550.04 340.33,-548.25"/>
<polygon fill="#63b8ff" stroke="#63b8ff" points="340.35,-551.76 350.11,-547.64 339.91,-544.77 340.35,-551.76"/>
</a>
</g>
</g>
<!-- Node254 -->
<g id="Node000254" class="node">
<title>Node254</title>
<g id="a_Node000254"><a xlink:href="levelmgr_8c.html#ad3472d44c7a3f817fe6ff0743e666416" target="_top" xlink:title="Checking after each round if we have a victor. We are doing whoever wins 2 first.">
<polygon fill="white" stroke="#666666" points="301.12,-438 229.62,-438 229.62,-418 301.12,-418 301.12,-438"/>
<text text-anchor="middle" x="265.38" y="-424.5" font-family="Helvetica,sans-Serif" font-size="10.00">IsGameOver</text>
</a>
</g>
</g>
<!-- Node253&#45;&gt;Node254 -->
<g id="edge24_Node000253_Node000254" class="edge">
<title>Node253&#45;&gt;Node254</title>
<g id="a_edge24_Node000253_Node000254"><a xlink:title=" ">
<path fill="none" stroke="#63b8ff" d="M171.15,-400.48C185.76,-404.8 202.88,-409.85 218.43,-414.44"/>
<polygon fill="#63b8ff" stroke="#63b8ff" points="217.38,-417.78 227.96,-417.25 219.36,-411.07 217.38,-417.78"/>
</a>
</g>
</g>
<!-- Node255 -->
<g id="Node000255" class="node">
<title>Node255</title>
<g id="a_Node000255"><a xlink:href="levelmgr_8c.html#a0d67e055b277f42d892288e892380b7e" target="_top" xlink:title=" ">
<polygon fill="white" stroke="#666666" points="302.25,-400 228.5,-400 228.5,-380 302.25,-380 302.25,-400"/>
<text text-anchor="middle" x="265.38" y="-386.5" font-family="Helvetica,sans-Serif" font-size="10.00">IsRoundOver</text>
</a>
</g>
</g>
<!-- Node253&#45;&gt;Node255 -->
<g id="edge25_Node000253_Node000255" class="edge">
<title>Node253&#45;&gt;Node255</title>
<g id="a_edge25_Node000253_Node000255"><a xlink:title=" ">
<path fill="none" stroke="#63b8ff" d="M173.21,-390C186.92,-390 202.59,-390 217.04,-390"/>
<polygon fill="#63b8ff" stroke="#63b8ff" points="216.78,-393.5 226.78,-390 216.78,-386.5 216.78,-393.5"/>
</a>
</g>
</g>
<!-- Node256 -->
<g id="Node000256" class="node">
<title>Node256</title>
<g id="a_Node000256"><a xlink:href="levelmgr_8c.html#adcf527b803684542639e64585bc2f6e7" target="_top" xlink:title=" ">
<polygon fill="white" stroke="#666666" points="428.88,-495 359.62,-495 359.62,-475 428.88,-475 428.88,-495"/>
<text text-anchor="middle" x="394.25" y="-481.5" font-family="Helvetica,sans-Serif" font-size="10.00">isTimerOver</text>
</a>
</g>
</g>
<!-- Node253&#45;&gt;Node256 -->
<g id="edge26_Node000253_Node000256" class="edge">
<title>Node253&#45;&gt;Node256</title>
<g id="a_edge26_Node000253_Node000256"><a xlink:title=" ">
<path fill="none" stroke="#63b8ff" d="M146.78,-400.35C161.35,-413.27 188.16,-435.13 215,-447 257.95,-466 311.02,-475.74 348.04,-480.57"/>
<polygon fill="#63b8ff" stroke="#63b8ff" points="347.6,-484.05 357.96,-481.79 348.46,-477.1 347.6,-484.05"/>
</a>
</g>
</g>
<!-- Node257 -->
<g id="Node000257" class="node">
<title>Node257</title>
<g id="a_Node000257"><a xlink:href="objmgr_8c.html#af18796cc452cca16e78dc6549cc93ffd" target="_top" xlink:title="Updates all registered objects.">
<polygon fill="#fff0f0" stroke="red" points="303.75,-362 227,-362 227,-342 303.75,-342 303.75,-362"/>
<text text-anchor="middle" x="265.38" y="-348.5" font-family="Helvetica,sans-Serif" font-size="10.00">objMgrUpdate</text>
</a>
</g>
</g>
<!-- Node253&#45;&gt;Node257 -->
<g id="edge27_Node000253_Node000257" class="edge">
<title>Node253&#45;&gt;Node257</title>
<g id="a_edge27_Node000253_Node000257"><a xlink:title=" ">
<path fill="none" stroke="#63b8ff" d="M171.15,-379.52C185.64,-375.24 202.6,-370.23 218.04,-365.67"/>
<polygon fill="#63b8ff" stroke="#63b8ff" points="218.92,-369.07 227.52,-362.88 216.94,-362.35 218.92,-369.07"/>
</a>
</g>
</g>
<!-- Node265 -->
<g id="Node000265" class="node">
<title>Node265</title>
<g id="a_Node000265"><a xlink:href="levelmgr_8c.html#a8f55f6f75815def1136f1046586bf24e" target="_top" xlink:title="When the game ends we do this to restart the game.">
<polygon fill="#fff0f0" stroke="red" points="297.38,-324 233.38,-324 233.38,-304 297.38,-304 297.38,-324"/>
<text text-anchor="middle" x="265.38" y="-310.5" font-family="Helvetica,sans-Serif" font-size="10.00">resetGame</text>
</a>
</g>
</g>
<!-- Node253&#45;&gt;Node265 -->
<g id="edge28_Node000253_Node000265" class="edge">
<title>Node253&#45;&gt;Node265</title>
<g id="a_edge28_Node000253_Node000265"><a xlink:title=" ">
<path fill="none" stroke="#63b8ff" d="M147.89,-379.66C162.95,-367.34 189.62,-346.7 215,-333 217.64,-331.58 220.4,-330.21 223.22,-328.9"/>
<polygon fill="#63b8ff" stroke="#63b8ff" points="224.34,-332.23 232.15,-325.07 221.58,-325.8 224.34,-332.23"/>
</a>
</g>
</g>
<!-- Node268 -->
<g id="Node000268" class="node">
<title>Node268</title>
<g id="a_Node000268"><a xlink:href="levelmgr_8c.html#a635843bc73947069101385ad485c89c3" target="_top" xlink:title="When starting new round we want to reinitialize some of the components such as in the characters....">
<polygon fill="#fff0f0" stroke="red" points="295.88,-286 234.88,-286 234.88,-266 295.88,-266 295.88,-286"/>
<text text-anchor="middle" x="265.38" y="-272.5" font-family="Helvetica,sans-Serif" font-size="10.00">resetLevel</text>
</a>
</g>
</g>
<!-- Node253&#45;&gt;Node268 -->
<g id="edge29_Node000253_Node000268" class="edge">
<title>Node253&#45;&gt;Node268</title>
<g id="a_edge29_Node000253_Node000268"><a xlink:title=" ">
<path fill="none" stroke="#63b8ff" d="M141.73,-379.66C153.57,-360.44 181.44,-319.01 215,-295 217.82,-292.98 220.89,-291.14 224.06,-289.48"/>
<polygon fill="#63b8ff" stroke="#63b8ff" points="225.4,-292.72 233.03,-285.37 222.48,-286.35 225.4,-292.72"/>
</a>
</g>
</g>
<!-- Node269 -->
<g id="Node000269" class="node">
<title>Node269</title>
<g id="a_Node000269"><a xlink:href="levelmgr_8c.html#a0d013301b0f620123463bc79bbb728de" target="_top" xlink:title="When we want to start the next round.">
<polygon fill="#fff0f0" stroke="red" points="314.25,-248 216.5,-248 216.5,-228 314.25,-228 314.25,-248"/>
<text text-anchor="middle" x="265.38" y="-234.5" font-family="Helvetica,sans-Serif" font-size="10.00">StartCurrentRound</text>
</a>
</g>
</g>
<!-- Node253&#45;&gt;Node269 -->
<g id="edge30_Node000253_Node000269" class="edge">
<title>Node253&#45;&gt;Node269</title>
<g id="a_edge30_Node000253_Node000269"><a xlink:title=" ">
<path fill="none" stroke="#63b8ff" d="M139.05,-379.78C147.8,-355.19 173.25,-292.17 215,-257 216.25,-255.95 217.57,-254.95 218.93,-254"/>
<polygon fill="#63b8ff" stroke="#63b8ff" points="220.28,-257.26 227.2,-249.24 216.79,-251.2 220.28,-257.26"/>
</a>
</g>
</g>
<!-- Node271 -->
<g id="Node000271" class="node">
<title>Node271</title>
<g id="a_Node000271"><a xlink:href="levelmgr_8c.html#a79022c62ce4500d0f75c4a8e36b09afd" target="_top" xlink:title="This function checks if the round is completed &#45; either a character won or if the timer got over.">
<polygon fill="#fff0f0" stroke="red" points="315.75,-514 215,-514 215,-494 315.75,-494 315.75,-514"/>
<text text-anchor="middle" x="265.38" y="-500.5" font-family="Helvetica,sans-Serif" font-size="10.00">TryCompleteRound</text>
</a>
</g>
</g>
<!-- Node253&#45;&gt;Node271 -->
<g id="edge31_Node000253_Node000271" class="edge">
<title>Node253&#45;&gt;Node271</title>
<g id="a_edge31_Node000253_Node000271"><a xlink:title=" ">
<path fill="none" stroke="#63b8ff" d="M142.65,-400.37C155.33,-418.47 183.66,-456.16 215,-480 219.03,-483.07 223.52,-485.9 228.11,-488.46"/>
<polygon fill="#63b8ff" stroke="#63b8ff" points="226.3,-491.46 236.79,-492.92 229.5,-485.24 226.3,-491.46"/>
</a>
</g>
</g>
<!-- Node271&#45;&gt;Node11 -->
<g id="edge32_Node000271_Node000011" class="edge">
<title>Node271&#45;&gt;Node11</title>
<g id="a_edge32_Node000271_Node000011"><a xlink:title=" ">
<path fill="none" stroke="#63b8ff" d="M301.38,-514.48C315.66,-518.76 332.37,-523.77 347.59,-528.33"/>
<polygon fill="#63b8ff" stroke="#63b8ff" points="346.33,-531.6 356.91,-531.12 348.33,-524.89 346.33,-531.6"/>
</a>
</g>
</g>
<!-- Node271&#45;&gt;Node256 -->
<g id="edge33_Node000271_Node000256" class="edge">
<title>Node271&#45;&gt;Node256</title>
<g id="a_edge33_Node000271_Node000256"><a xlink:title=" ">
<path fill="none" stroke="#63b8ff" d="M316.16,-496.55C326.65,-494.97 337.66,-493.32 347.98,-491.78"/>
<polygon fill="#63b8ff" stroke="#63b8ff" points="348.39,-495.26 357.76,-490.31 347.36,-488.33 348.39,-495.26"/>
</a>
</g>
</g>
</g>
</svg>
