<?xml version="1.0" encoding="UTF-8" standalone="no"?>
<!DOCTYPE svg PUBLIC "-//W3C//DTD SVG 1.1//EN"
 "http://www.w3.org/Graphics/SVG/1.1/DTD/svg11.dtd">
<!-- Generated by graphviz version 12.2.1 (20241206.2353)
 -->
<!-- Title: Game/include/hadouken.h Pages: 1 -->
<svg width="441pt" height="140pt"
 viewBox="0.00 0.00 441.00 140.00" xmlns="http://www.w3.org/2000/svg" xmlns:xlink="http://www.w3.org/1999/xlink">
<g id="graph0" class="graph" transform="scale(1 1) rotate(0) translate(4 136)">
<title>Game/include/hadouken.h</title>
<!-- Node1 -->
<g id="Node000001" class="node">
<title>Node1</title>
<g id="a_Node000001"><a xlink:title=" ">
<polygon fill="#999999" stroke="#666666" points="270.62,-132 141.38,-132 141.38,-112 270.62,-112 270.62,-132"/>
<text text-anchor="middle" x="206" y="-118.5" font-family="Helvetica,sans-Serif" font-size="10.00">Game/include/hadouken.h</text>
</a>
</g>
</g>
<!-- Node2 -->
<g id="Node000002" class="node">
<title>Node2</title>
<g id="a_Node000002"><a xlink:href="levelmgr_8h.html" target="_top" xlink:title=" ">
<polygon fill="white" stroke="#666666" points="137,-76 13,-76 13,-56 137,-56 137,-76"/>
<text text-anchor="middle" x="75" y="-62.5" font-family="Helvetica,sans-Serif" font-size="10.00">Game/include/levelmgr.h</text>
</a>
</g>
</g>
<!-- Node1&#45;&gt;Node2 -->
<g id="edge1_Node000001_Node000002" class="edge">
<title>Node1&#45;&gt;Node2</title>
<g id="a_edge1_Node000001_Node000002"><a xlink:title=" ">
<path fill="none" stroke="#63b8ff" d="M172.7,-107.27C149.33,-97.64 118.68,-85.01 98,-76.48"/>
<polygon fill="#63b8ff" stroke="#63b8ff" points="171.2,-110.44 181.78,-111.02 173.87,-103.97 171.2,-110.44"/>
</a>
</g>
</g>
<!-- Node4 -->
<g id="Node000004" class="node">
<title>Node4</title>
<g id="a_Node000004"><a xlink:href="levelmgr_8c.html" target="_top" xlink:title=" ">
<polygon fill="white" stroke="#666666" points="218.38,-20 111.62,-20 111.62,0 218.38,0 218.38,-20"/>
<text text-anchor="middle" x="165" y="-6.5" font-family="Helvetica,sans-Serif" font-size="10.00">Game/src/levelmgr.c</text>
</a>
</g>
</g>
<!-- Node1&#45;&gt;Node4 -->
<g id="edge6_Node000001_Node000004" class="edge">
<title>Node1&#45;&gt;Node4</title>
<g id="a_edge6_Node000001_Node000004"><a xlink:title=" ">
<path fill="none" stroke="#63b8ff" d="M195.49,-101.35C191.58,-93.58 187.29,-84.5 184,-76 176.53,-56.7 170.35,-33.22 167.22,-20.42"/>
<polygon fill="#63b8ff" stroke="#63b8ff" points="192.38,-102.95 200.1,-110.21 198.59,-99.73 192.38,-102.95"/>
</a>
</g>
</g>
<!-- Node5 -->
<g id="Node000005" class="node">
<title>Node5</title>
<g id="a_Node000005"><a xlink:href="character_8c.html" target="_top" xlink:title=" ">
<polygon fill="white" stroke="#666666" points="303.25,-76 192.75,-76 192.75,-56 303.25,-56 303.25,-76"/>
<text text-anchor="middle" x="248" y="-62.5" font-family="Helvetica,sans-Serif" font-size="10.00">Game/src/character.c</text>
</a>
</g>
</g>
<!-- Node1&#45;&gt;Node5 -->
<g id="edge4_Node000001_Node000005" class="edge">
<title>Node1&#45;&gt;Node5</title>
<g id="a_edge4_Node000001_Node000005"><a xlink:title=" ">
<path fill="none" stroke="#63b8ff" d="M220.22,-102.72C227.13,-93.84 235.13,-83.55 240.77,-76.3"/>
<polygon fill="#63b8ff" stroke="#63b8ff" points="217.62,-100.36 214.25,-110.4 223.15,-104.65 217.62,-100.36"/>
</a>
</g>
</g>
<!-- Node6 -->
<g id="Node000006" class="node">
<title>Node6</title>
<g id="a_Node000006"><a xlink:href="hadouken_8c.html" target="_top" xlink:title=" ">
<polygon fill="white" stroke="#666666" points="433,-76 321,-76 321,-56 433,-56 433,-76"/>
<text text-anchor="middle" x="377" y="-62.5" font-family="Helvetica,sans-Serif" font-size="10.00">Game/src/hadouken.c</text>
</a>
</g>
</g>
<!-- Node1&#45;&gt;Node6 -->
<g id="edge5_Node000001_Node000006" class="edge">
<title>Node1&#45;&gt;Node6</title>
<g id="a_edge5_Node000001_Node000006"><a xlink:title=" ">
<path fill="none" stroke="#63b8ff" d="M246.6,-108.18C277.43,-98.44 319.12,-85.28 346.98,-76.48"/>
<polygon fill="#63b8ff" stroke="#63b8ff" points="245.71,-104.79 237.23,-111.14 247.82,-111.46 245.71,-104.79"/>
</a>
</g>
</g>
<!-- Node3 -->
<g id="Node000003" class="node">
<title>Node3</title>
<g id="a_Node000003"><a xlink:href="game_8c.html" target="_top" xlink:title=" ">
<polygon fill="white" stroke="#666666" points="94,-20 0,-20 0,0 94,0 94,-20"/>
<text text-anchor="middle" x="47" y="-6.5" font-family="Helvetica,sans-Serif" font-size="10.00">Game/src/game.c</text>
</a>
</g>
</g>
<!-- Node2&#45;&gt;Node3 -->
<g id="edge2_Node000002_Node000003" class="edge">
<title>Node2&#45;&gt;Node3</title>
<g id="a_edge2_Node000002_Node000003"><a xlink:title=" ">
<path fill="none" stroke="#63b8ff" d="M64.93,-45.58C60.47,-36.97 55.42,-27.24 51.82,-20.3"/>
<polygon fill="#63b8ff" stroke="#63b8ff" points="61.72,-46.98 69.43,-54.25 67.93,-43.76 61.72,-46.98"/>
</a>
</g>
</g>
<!-- Node2&#45;&gt;Node4 -->
<g id="edge3_Node000002_Node000004" class="edge">
<title>Node2&#45;&gt;Node4</title>
<g id="a_edge3_Node000002_Node000004"><a xlink:title=" ">
<path fill="none" stroke="#63b8ff" d="M100.31,-49.81C116.01,-40.39 135.7,-28.58 149.2,-20.48"/>
<polygon fill="#63b8ff" stroke="#63b8ff" points="98.75,-46.67 91.97,-54.82 102.35,-52.67 98.75,-46.67"/>
</a>
</g>
</g>
</g>
</svg>
